<?xml version="1.0" encoding="UTF-8"?>
<svg id="Layer_2" xmlns="http://www.w3.org/2000/svg" version="1.1" viewBox="0 0 1475 406.3">
  <!-- Generator: Adobe Illustrator 29.7.1, SVG Export Plug-In . SVG Version: 2.1.1 Build 8)  -->
  <defs>
    <style>
      .st0 {
        fill: none;
        stroke: #fff;
        stroke-miterlimit: 10;
        stroke-width: 4px;
      }

      .st1 {
        isolation: isolate;
      }

      .st2 {
        fill: #ef0000;
      }

      .st3 {
        fill: #fff;
      }
    </style>
  </defs>
  <g id="Layer_2-2">
    <g>
      <g class="st1">
        <g class="st1">
          <path class="st3" d="M545.6,69.4c7.9,4.2,11.8,11.1,11.8,20.8s-3,15.1-9,19.4c-6,4.2-13.8,6.4-23.5,6.4h-34.6c-.4,0-.8-.2-1.1-.5-.3-.3-.5-.7-.5-1.1V26.5c0-.4.2-.8.5-1.1s.7-.5,1.1-.5h33.5c10.6,0,18.6,2,24,6,5.4,4,8.1,10.4,8.1,19.4s-3.5,14.6-10.4,18.3c-.5.3-.5.5,0,.8ZM510.4,44.1v16.4c0,.4.2.6.6.6h12.9c3.6,0,6.3-.8,8.2-2.3,1.9-1.5,2.9-3.7,2.9-6.4s-1-5.1-2.9-6.6c-1.9-1.6-4.6-2.3-8.2-2.3h-12.9c-.4,0-.6.2-.6.7ZM533,95c1.9-1.6,2.9-3.9,2.9-7s-.9-5.2-2.8-6.8c-1.9-1.6-4.6-2.4-8.1-2.4h-13.9c-.4,0-.6.2-.6.6v17.3c0,.4.2.7.6.7h13.9c3.5,0,6.2-.8,8.1-2.4Z"/>
          <path class="st3" d="M589.6,113.2c-5.3-2.8-9.5-6.8-12.4-11.9-2.9-5.1-4.4-11-4.4-17.8v-26c0-6.6,1.5-12.4,4.4-17.5,2.9-5.1,7.1-9,12.4-11.8,5.3-2.8,11.5-4.2,18.5-4.2s13.2,1.4,18.6,4.2c5.4,2.8,9.5,6.8,12.5,11.8,2.9,5.1,4.4,10.9,4.4,17.5v26c0,6.8-1.5,12.7-4.4,17.8-2.9,5.1-7.1,9.1-12.5,11.9-5.4,2.8-11.6,4.2-18.6,4.2s-13.2-1.4-18.5-4.2ZM618.2,94.9c2.6-2.7,3.8-6.3,3.8-10.8v-26.9c0-4.4-1.3-8-3.8-10.7-2.6-2.7-5.9-4.1-10.1-4.1s-7.4,1.4-9.9,4.1c-2.6,2.7-3.8,6.3-3.8,10.7v26.9c0,4.5,1.3,8.1,3.8,10.8,2.6,2.7,5.9,4,9.9,4s7.5-1.3,10.1-4Z"/>
          <path class="st3" d="M676.2,113c-5.2-2.6-9.3-6.4-12.2-11.2-2.9-4.9-4.4-10.4-4.4-16.8V26.5c0-.4.2-.8.5-1.1.3-.3.7-.5,1.1-.5h18.5c.4,0,.8.2,1.1.5.3.3.5.7.5,1.1v58.5c0,4.1,1.2,7.3,3.6,9.8,2.4,2.5,5.6,3.7,9.6,3.7s7-1.2,9.4-3.7c2.4-2.5,3.6-5.7,3.6-9.8V26.5c0-.4.2-.8.5-1.1.3-.3.7-.5,1.1-.5h18.5c.4,0,.8.2,1.1.5.3.3.5.7.5,1.1v58.5c0,6.3-1.4,11.9-4.3,16.8-2.9,4.9-6.9,8.6-12.2,11.2-5.2,2.6-11.3,4-18.1,4s-12.9-1.3-18.1-4Z"/>
          <path class="st3" d="M798.4,25.4c.3-.3.7-.5,1.1-.5h18.5c.4,0,.8.2,1.1.5.3.3.5.7.5,1.1v87.9c0,.4-.2.8-.5,1.1s-.7.5-1.1.5h-17.7c-.9,0-1.5-.3-1.8-1l-29.9-49.7c-.2-.3-.3-.4-.5-.3-.2,0-.3.2-.3.6v48.9c.1.4,0,.8-.3,1.1s-.7.5-1.1.5h-18.5c-.4,0-.8-.2-1.1-.5-.3-.3-.5-.7-.5-1.1V26.5c0-.4.2-.8.5-1.1s.7-.5,1.1-.5h17.8c.9,0,1.5.3,1.8,1l29.8,49.5c.2.3.3.4.5.3.2,0,.3-.2.3-.6V26.5c-.1-.4,0-.8.3-1.1Z"/>
          <path class="st3" d="M904.5,25.4c.3.3.5.7.5,1.1v15.5c0,.4-.2.8-.5,1.1s-.7.5-1.1.5h-22.8c-.4,0-.7.2-.7.7v70.2c0,.4-.2.8-.5,1.1s-.7.5-1.1.5h-18.5c-.4,0-.8-.2-1.1-.5-.3-.3-.5-.7-.5-1.1V44.2c0-.4-.2-.7-.6-.7h-22c-.4,0-.8-.2-1.1-.5-.3-.3-.5-.7-.5-1.1v-15.5c0-.4.2-.8.5-1.1s.7-.5,1.1-.5h67.6c.4,0,.8.2,1.1.5Z"/>
          <path class="st3" d="M944,115.2c-.3-.3-.5-.7-.5-1.1v-30.8c0-.3,0-.6-.1-.8l-26.6-55.8c-.2-.3-.3-.6-.3-.8,0-.7.5-1,1.4-1h20c.9,0,1.5.4,1.8,1.2l14.2,32.9c.3.5.5.5.8,0l14.3-32.9c.3-.8,1-1.2,1.8-1.2h20.2c.6,0,1,.2,1.2.5.2.3.2.8,0,1.4l-27,55.8c0,.2-.1.4-.1.8v30.8c0,.4-.2.8-.5,1.1s-.7.5-1.1.5h-18.3c-.4,0-.8-.2-1.1-.5Z"/>
        </g>
        <g class="st1">
          <path class="st0" d="M545.6,69.4c7.9,4.2,11.8,11.1,11.8,20.8s-3,15.1-9,19.4c-6,4.2-13.8,6.4-23.5,6.4h-34.6c-.4,0-.8-.2-1.1-.5-.3-.3-.5-.7-.5-1.1V26.5c0-.4.2-.8.5-1.1s.7-.5,1.1-.5h33.5c10.6,0,18.6,2,24,6,5.4,4,8.1,10.4,8.1,19.4s-3.5,14.6-10.4,18.3c-.5.3-.5.5,0,.8ZM510.4,44.1v16.4c0,.4.2.6.6.6h12.9c3.6,0,6.3-.8,8.2-2.3,1.9-1.5,2.9-3.7,2.9-6.4s-1-5.1-2.9-6.6c-1.9-1.6-4.6-2.3-8.2-2.3h-12.9c-.4,0-.6.2-.6.7ZM533,95c1.9-1.6,2.9-3.9,2.9-7s-.9-5.2-2.8-6.8c-1.9-1.6-4.6-2.4-8.1-2.4h-13.9c-.4,0-.6.2-.6.6v17.3c0,.4.2.7.6.7h13.9c3.5,0,6.2-.8,8.1-2.4Z"/>
          <path class="st0" d="M589.6,113.2c-5.3-2.8-9.5-6.8-12.4-11.9-2.9-5.1-4.4-11-4.4-17.8v-26c0-6.6,1.5-12.4,4.4-17.5,2.9-5.1,7.1-9,12.4-11.8,5.3-2.8,11.5-4.2,18.5-4.2s13.2,1.4,18.6,4.2c5.4,2.8,9.5,6.8,12.5,11.8,2.9,5.1,4.4,10.9,4.4,17.5v26c0,6.8-1.5,12.7-4.4,17.8-2.9,5.1-7.1,9.1-12.5,11.9-5.4,2.8-11.6,4.2-18.6,4.2s-13.2-1.4-18.5-4.2ZM618.2,94.9c2.6-2.7,3.8-6.3,3.8-10.8v-26.9c0-4.4-1.3-8-3.8-10.7-2.6-2.7-5.9-4.1-10.1-4.1s-7.4,1.4-9.9,4.1c-2.6,2.7-3.8,6.3-3.8,10.7v26.9c0,4.5,1.3,8.1,3.8,10.8,2.6,2.7,5.9,4,9.9,4s7.5-1.3,10.1-4Z"/>
          <path class="st0" d="M676.2,113c-5.2-2.6-9.3-6.4-12.2-11.2-2.9-4.9-4.4-10.4-4.4-16.8V26.5c0-.4.2-.8.5-1.1.3-.3.7-.5,1.1-.5h18.5c.4,0,.8.2,1.1.5.3.3.5.7.5,1.1v58.5c0,4.1,1.2,7.3,3.6,9.8,2.4,2.5,5.6,3.7,9.6,3.7s7-1.2,9.4-3.7c2.4-2.5,3.6-5.7,3.6-9.8V26.5c0-.4.2-.8.5-1.1.3-.3.7-.5,1.1-.5h18.5c.4,0,.8.2,1.1.5.3.3.5.7.5,1.1v58.5c0,6.3-1.4,11.9-4.3,16.8-2.9,4.9-6.9,8.6-12.2,11.2-5.2,2.6-11.3,4-18.1,4s-12.9-1.3-18.1-4Z"/>
          <path class="st0" d="M798.4,25.4c.3-.3.7-.5,1.1-.5h18.5c.4,0,.8.2,1.1.5.3.3.5.7.5,1.1v87.9c0,.4-.2.8-.5,1.1s-.7.5-1.1.5h-17.7c-.9,0-1.5-.3-1.8-1l-29.9-49.7c-.2-.3-.3-.4-.5-.3-.2,0-.3.2-.3.6v48.9c.1.4,0,.8-.3,1.1s-.7.5-1.1.5h-18.5c-.4,0-.8-.2-1.1-.5-.3-.3-.5-.7-.5-1.1V26.5c0-.4.2-.8.5-1.1s.7-.5,1.1-.5h17.8c.9,0,1.5.3,1.8,1l29.8,49.5c.2.3.3.4.5.3.2,0,.3-.2.3-.6V26.5c-.1-.4,0-.8.3-1.1Z"/>
          <path class="st0" d="M904.5,25.4c.3.3.5.7.5,1.1v15.5c0,.4-.2.8-.5,1.1s-.7.5-1.1.5h-22.8c-.4,0-.7.2-.7.7v70.2c0,.4-.2.8-.5,1.1s-.7.5-1.1.5h-18.5c-.4,0-.8-.2-1.1-.5-.3-.3-.5-.7-.5-1.1V44.2c0-.4-.2-.7-.6-.7h-22c-.4,0-.8-.2-1.1-.5-.3-.3-.5-.7-.5-1.1v-15.5c0-.4.2-.8.5-1.1s.7-.5,1.1-.5h67.6c.4,0,.8.2,1.1.5Z"/>
          <path class="st0" d="M944,115.2c-.3-.3-.5-.7-.5-1.1v-30.8c0-.3,0-.6-.1-.8l-26.6-55.8c-.2-.3-.3-.6-.3-.8,0-.7.5-1,1.4-1h20c.9,0,1.5.4,1.8,1.2l14.2,32.9c.3.5.5.5.8,0l14.3-32.9c.3-.8,1-1.2,1.8-1.2h20.2c.6,0,1,.2,1.2.5.2.3.2.8,0,1.4l-27,55.8c0,.2-.1.4-.1.8v30.8c0,.4-.2.8-.5,1.1s-.7.5-1.1.5h-18.3c-.4,0-.8-.2-1.1-.5Z"/>
        </g>
        <g class="st1">
          <path class="st3" d="M26.8,241.5c-5.3-2.3-9.4-5.6-12.4-9.9-2.9-4.3-4.4-9.2-4.4-14.9v-2.5c0-.4.2-.8.5-1.1s.7-.5,1.1-.5h18.1c.4,0,.8.2,1.1.5.3.3.5.7.5,1.1v1.6c0,2.9,1.4,5.4,4.3,7.5,2.9,2.1,6.7,3.2,11.6,3.2s6.6-.8,8.4-2.5c1.8-1.6,2.7-3.6,2.7-5.7s-.5-3.1-1.6-4.2c-1.1-1.1-2.5-2-4.4-2.7-1.8-.7-4.6-1.8-8.4-3.1-.5-.3-1-.5-1.6-.6s-1-.3-1.4-.5c-5.6-1.8-10.5-3.8-14.7-5.9-4.2-2.1-7.7-5.1-10.7-8.8-2.9-3.8-4.4-8.4-4.4-14s1.4-10.1,4.2-14.1c2.8-4,6.7-7.1,11.8-9.3,5-2.2,10.7-3.2,17-3.2s12.7,1.2,18,3.6c5.3,2.4,9.5,5.9,12.5,10.3,3,4.4,4.6,9.5,4.6,15.2v1.8c0,.4-.2.8-.5,1.1s-.7.5-1.1.5h-18.1c-.4,0-.8-.2-1.1-.5-.3-.3-.5-.7-.5-1.1v-.9c0-3-1.3-5.7-4-8.1-2.7-2.3-6.3-3.5-10.8-3.5s-6,.7-7.9,2.1c-1.9,1.4-2.9,3.3-2.9,5.8s.6,3.5,1.8,4.7c1.2,1.3,3.1,2.4,5.7,3.5,2.6,1.1,6.5,2.5,11.8,4.2,6.1,2.1,10.8,3.9,14.2,5.5s6.6,4.1,9.6,7.6c3,3.5,4.5,8.1,4.5,13.8s-1.4,10.5-4.3,14.6c-2.9,4.1-6.9,7.2-12,9.4-5.2,2.2-11.2,3.3-18,3.3s-13.5-1.1-18.8-3.4Z"/>
          <path class="st3" d="M162,153.4c.3.3.5.7.5,1.1v15.5c0,.4-.2.8-.5,1.1s-.7.5-1.1.5h-22.8c-.4,0-.6.2-.6.7v70.2c0,.4-.2.8-.5,1.1s-.7.5-1.1.5h-18.5c-.4,0-.8-.2-1.1-.5-.3-.3-.5-.7-.5-1.1v-70.2c0-.4-.2-.7-.6-.7h-22c-.4,0-.8-.2-1.1-.5-.3-.3-.5-.7-.5-1.1v-15.5c0-.4.2-.8.5-1.1s.7-.5,1.1-.5h67.6c.4,0,.8.2,1.1.5Z"/>
          <path class="st3" d="M224,242.8l-15.3-34.6c-.2-.3-.4-.5-.8-.5h-8.6c-.4,0-.7.2-.7.6v34.1c0,.4-.2.8-.5,1.1-.3.3-.7.5-1.1.5h-18.5c-.4,0-.8-.2-1.1-.5-.3-.3-.5-.7-.5-1.1v-87.9c0-.4.1-.8.5-1.1s.7-.5,1.1-.5h38.6c5.7,0,10.7,1.2,15.1,3.5,4.3,2.3,7.7,5.7,10.1,9.9,2.4,4.3,3.6,9.2,3.6,14.8s-1.4,10.8-4.3,15.1c-2.9,4.2-6.8,7.3-12,9.2-.4.2-.6.5-.4.9l17.2,35.8c.2.3.3.6.3.8,0,.7-.5,1-1.4,1h-19.5c-.9,0-1.5-.4-1.8-1.2ZM198.6,172.1v18.5c0,.4.2.6.7.6h14.4c3.2,0,5.8-.9,7.8-2.7,2-1.8,3-4.1,3-7.1s-1-5.5-3-7.3c-2-1.8-4.6-2.7-7.8-2.7h-14.4c-.4,0-.7.2-.7.7Z"/>
        </g>
        <g class="st1">
          <path class="st0" d="M26.8,241.5c-5.3-2.3-9.4-5.6-12.4-9.9-2.9-4.3-4.4-9.2-4.4-14.9v-2.5c0-.4.2-.8.5-1.1s.7-.5,1.1-.5h18.1c.4,0,.8.2,1.1.5.3.3.5.7.5,1.1v1.6c0,2.9,1.4,5.4,4.3,7.5,2.9,2.1,6.7,3.2,11.6,3.2s6.6-.8,8.4-2.5c1.8-1.6,2.7-3.6,2.7-5.7s-.5-3.1-1.6-4.2c-1.1-1.1-2.5-2-4.4-2.7-1.8-.7-4.6-1.8-8.4-3.1-.5-.3-1-.5-1.6-.6s-1-.3-1.4-.5c-5.6-1.8-10.5-3.8-14.7-5.9-4.2-2.1-7.7-5.1-10.7-8.8-2.9-3.8-4.4-8.4-4.4-14s1.4-10.1,4.2-14.1c2.8-4,6.7-7.1,11.8-9.3,5-2.2,10.7-3.2,17-3.2s12.7,1.2,18,3.6c5.3,2.4,9.5,5.9,12.5,10.3,3,4.4,4.6,9.5,4.6,15.2v1.8c0,.4-.2.8-.5,1.1s-.7.5-1.1.5h-18.1c-.4,0-.8-.2-1.1-.5-.3-.3-.5-.7-.5-1.1v-.9c0-3-1.3-5.7-4-8.1-2.7-2.3-6.3-3.5-10.8-3.5s-6,.7-7.9,2.1c-1.9,1.4-2.9,3.3-2.9,5.8s.6,3.5,1.8,4.7c1.2,1.3,3.1,2.4,5.7,3.5,2.6,1.1,6.5,2.5,11.8,4.2,6.1,2.1,10.8,3.9,14.2,5.5s6.6,4.1,9.6,7.6c3,3.5,4.5,8.1,4.5,13.8s-1.4,10.5-4.3,14.6c-2.9,4.1-6.9,7.2-12,9.4-5.2,2.2-11.2,3.3-18,3.3s-13.5-1.1-18.8-3.4Z"/>
          <path class="st0" d="M162,153.4c.3.3.5.7.5,1.1v15.5c0,.4-.2.8-.5,1.1s-.7.5-1.1.5h-22.8c-.4,0-.6.2-.6.7v70.2c0,.4-.2.8-.5,1.1s-.7.5-1.1.5h-18.5c-.4,0-.8-.2-1.1-.5-.3-.3-.5-.7-.5-1.1v-70.2c0-.4-.2-.7-.6-.7h-22c-.4,0-.8-.2-1.1-.5-.3-.3-.5-.7-.5-1.1v-15.5c0-.4.2-.8.5-1.1s.7-.5,1.1-.5h67.6c.4,0,.8.2,1.1.5Z"/>
          <path class="st0" d="M224,242.8l-15.3-34.6c-.2-.3-.4-.5-.8-.5h-8.6c-.4,0-.7.2-.7.6v34.1c0,.4-.2.8-.5,1.1-.3.3-.7.5-1.1.5h-18.5c-.4,0-.8-.2-1.1-.5-.3-.3-.5-.7-.5-1.1v-87.9c0-.4.1-.8.5-1.1s.7-.5,1.1-.5h38.6c5.7,0,10.7,1.2,15.1,3.5,4.3,2.3,7.7,5.7,10.1,9.9,2.4,4.3,3.6,9.2,3.6,14.8s-1.4,10.8-4.3,15.1c-2.9,4.2-6.8,7.3-12,9.2-.4.2-.6.5-.4.9l17.2,35.8c.2.3.3.6.3.8,0,.7-.5,1-1.4,1h-19.5c-.9,0-1.5-.4-1.8-1.2ZM198.6,172.1v18.5c0,.4.2.6.7.6h14.4c3.2,0,5.8-.9,7.8-2.7,2-1.8,3-4.1,3-7.1s-1-5.5-3-7.3c-2-1.8-4.6-2.7-7.8-2.7h-14.4c-.4,0-.7.2-.7.7Z"/>
        </g>
        <g class="st1">
          <path class="st3" d="M321.4,242.7l-3.4-11.6c-.2-.3-.4-.5-.6-.5h-29.6c-.3,0-.5.2-.6.5l-3.4,11.6c-.3.9-.9,1.3-1.8,1.3h-19.9c-.5,0-.9-.2-1.2-.5-.3-.3-.3-.8-.1-1.4l27.8-87.9c.3-.9.8-1.3,1.7-1.3h24.6c.9,0,1.4.4,1.7,1.3l28,87.9c0,.2.1.4.1.7,0,.8-.5,1.2-1.4,1.2h-19.9c-1,0-1.6-.4-1.8-1.3ZM292.8,213.9h19.4c.5,0,.7-.3.5-.8l-9.9-33.4c0-.3-.2-.5-.4-.5-.2,0-.3.2-.4.5l-9.8,33.4c0,.5,0,.8.5.8Z"/>
        </g>
        <g class="st1">
          <path class="st0" d="M321.4,242.7l-3.4-11.6c-.2-.3-.4-.5-.6-.5h-29.6c-.3,0-.5.2-.6.5l-3.4,11.6c-.3.9-.9,1.3-1.8,1.3h-19.9c-.5,0-.9-.2-1.2-.5-.3-.3-.3-.8-.1-1.4l27.8-87.9c.3-.9.8-1.3,1.7-1.3h24.6c.9,0,1.4.4,1.7,1.3l28,87.9c0,.2.1.4.1.7,0,.8-.5,1.2-1.4,1.2h-19.9c-1,0-1.6-.4-1.8-1.3ZM292.8,213.9h19.4c.5,0,.7-.3.5-.8l-9.9-33.4c0-.3-.2-.5-.4-.5-.2,0-.3.2-.4.5l-9.8,33.4c0,.5,0,.8.5.8Z"/>
        </g>
        <g class="st1">
          <path class="st3" d="M415.7,153.4c.3.3.5.7.5,1.1v15.5c0,.4-.2.8-.5,1.1s-.7.5-1.1.5h-22.8c-.4,0-.6.2-.6.7v70.2c0,.4-.2.8-.5,1.1s-.7.5-1.1.5h-18.5c-.4,0-.8-.2-1.1-.5-.3-.3-.5-.7-.5-1.1v-70.2c0-.4-.2-.7-.6-.7h-22c-.4,0-.8-.2-1.1-.5-.3-.3-.5-.7-.5-1.1v-15.5c0-.4.1-.8.5-1.1s.7-.5,1.1-.5h67.6c.4,0,.8.2,1.1.5Z"/>
          <path class="st3" d="M494.8,171c-.3.3-.7.5-1.1.5h-40.8c-.4,0-.6.2-.6.7v16c0,.4.2.7.6.7h26.1c.4,0,.8.2,1.1.5.3.3.5.7.5,1.1v15.2c0,.4-.2.8-.5,1.1s-.7.5-1.1.5h-26.1c-.4,0-.6.2-.6.7v17.2c0,.4.2.7.6.7h40.8c.4,0,.8.2,1.1.5.3.3.5.7.5,1.1v15.3c0,.4-.2.8-.5,1.1-.3.3-.7.5-1.1.5h-61.5c-.4,0-.8-.2-1.1-.5-.3-.3-.5-.7-.5-1.1v-87.9c0-.4.2-.8.5-1.1s.7-.5,1.1-.5h61.5c.4,0,.8.2,1.1.5.3.3.5.7.5,1.1v15.3c0,.4-.2.8-.5,1.1Z"/>
          <path class="st3" d="M526,240.8c-5.2-2.8-9.3-6.7-12.2-11.7-2.9-5-4.4-10.8-4.4-17.4v-26.6c0-6.6,1.5-12.4,4.4-17.4,2.9-5,7-8.9,12.2-11.6,5.2-2.8,11.3-4.2,18.3-4.2s12.9,1.3,18.2,4c5.3,2.6,9.4,6.3,12.3,10.9,2.9,4.6,4.4,9.7,4.4,15.2v.6c0,.4-.2.8-.5,1.1s-.7.5-1.1.5h-18.5c-.4,0-.8-.2-1.1-.5-.3-.3-.5-.7-.5-1.1,0-3.4-1.2-6.3-3.6-8.6-2.4-2.4-5.6-3.6-9.7-3.6s-7.2,1.3-9.6,3.9c-2.4,2.6-3.6,6-3.6,10.1v28c0,4.2,1.3,7.5,4,10.1,2.7,2.6,6.1,3.9,10.1,3.9s6.9-1,9.2-3.1c2.3-2,3.5-4.9,3.5-8.5v-3.6c0-.4-.2-.7-.6-.7h-13c-.4,0-.8-.2-1.1-.5-.3-.3-.5-.7-.5-1.1v-14.3c0-.4.2-.8.5-1.1s.7-.5,1.1-.5h33.3c.4,0,.8.2,1.1.5.3.3.5.7.5,1.1v17.7c0,6.5-1.5,12.2-4.4,17.2-2.9,4.9-7,8.8-12.2,11.4-5.2,2.7-11.3,4-18.3,4s-13-1.4-18.3-4.2Z"/>
          <path class="st3" d="M596.1,243.5c-.3-.3-.5-.7-.5-1.1v-87.9c0-.4.2-.8.5-1.1s.7-.5,1.1-.5h18.5c.4,0,.8.2,1.1.5.3.3.5.7.5,1.1v87.9c0,.4-.2.8-.5,1.1s-.7.5-1.1.5h-18.5c-.4,0-.8-.2-1.1-.5Z"/>
          <path class="st3" d="M650.4,241c-5.2-2.7-9.3-6.5-12.2-11.4-2.9-4.9-4.4-10.7-4.4-17.2v-28.1c0-6.4,1.5-12.1,4.4-17,2.9-4.9,7-8.7,12.2-11.4,5.2-2.7,11.3-4,18.3-4s13,1.3,18.3,3.8c5.2,2.6,9.3,6.2,12.2,10.8,2.9,4.6,4.4,10,4.4,16.1s-.2.8-.5,1c-.3.3-.7.4-1.1.4l-18.5,1.2c-1,0-1.6-.5-1.6-1.4,0-4.1-1.2-7.3-3.6-9.8-2.4-2.4-5.6-3.6-9.6-3.6s-7.2,1.2-9.6,3.7c-2.4,2.5-3.6,5.7-3.6,9.7v29.5c0,4,1.2,7.2,3.6,9.6,2.4,2.4,5.6,3.6,9.6,3.6s7.2-1.2,9.6-3.6c2.4-2.4,3.6-5.6,3.6-9.6s.5-1.4,1.6-1.4l18.5.9c.4,0,.8.1,1.1.4.3.3.5.6.5.9,0,6.2-1.5,11.6-4.4,16.2-2.9,4.7-7,8.3-12.2,10.9-5.2,2.6-11.3,3.8-18.3,3.8s-13-1.3-18.3-4Z"/>
          <path class="st3" d="M765.1,241.5c-5.3-2.3-9.4-5.6-12.3-9.9-2.9-4.3-4.4-9.2-4.4-14.9v-2.5c0-.4.2-.8.5-1.1s.7-.5,1.1-.5h18.1c.4,0,.8.2,1.1.5.3.3.5.7.5,1.1v1.6c0,2.9,1.4,5.4,4.3,7.5,2.9,2.1,6.7,3.2,11.6,3.2s6.6-.8,8.5-2.5c1.8-1.6,2.7-3.6,2.7-5.7s-.5-3.1-1.6-4.2c-1.1-1.1-2.5-2-4.4-2.7-1.8-.7-4.6-1.8-8.5-3.1-.5-.3-1-.5-1.6-.6-.5-.1-1-.3-1.4-.5-5.6-1.8-10.5-3.8-14.7-5.9-4.2-2.1-7.7-5.1-10.7-8.8-2.9-3.8-4.4-8.4-4.4-14s1.4-10.1,4.2-14.1c2.8-4,6.7-7.1,11.8-9.3,5-2.2,10.7-3.2,17-3.2s12.7,1.2,18,3.6c5.3,2.4,9.5,5.9,12.5,10.3,3,4.4,4.5,9.5,4.5,15.2v1.8c0,.4-.2.8-.5,1.1s-.7.5-1.1.5h-18.1c-.4,0-.8-.2-1.1-.5-.3-.3-.5-.7-.5-1.1v-.9c0-3-1.3-5.7-4-8.1-2.7-2.3-6.3-3.5-10.8-3.5s-6,.7-7.9,2.1c-1.9,1.4-2.9,3.3-2.9,5.8s.6,3.5,1.8,4.7c1.2,1.3,3.1,2.4,5.7,3.5,2.6,1.1,6.5,2.5,11.8,4.2,6.1,2.1,10.8,3.9,14.2,5.5s6.6,4.1,9.6,7.6c3,3.5,4.5,8.1,4.5,13.8s-1.4,10.5-4.3,14.6c-2.9,4.1-6.9,7.2-12,9.4-5.2,2.2-11.2,3.3-18,3.3s-13.5-1.1-18.8-3.4Z"/>
          <path class="st3" d="M850,241c-5.2-2.6-9.3-6.4-12.2-11.2-2.9-4.9-4.4-10.4-4.4-16.8v-58.5c0-.4.2-.8.5-1.1s.7-.5,1.1-.5h18.5c.4,0,.8.2,1.1.5.3.3.5.7.5,1.1v58.5c0,4.1,1.2,7.3,3.6,9.8,2.4,2.5,5.6,3.7,9.6,3.7s7-1.2,9.4-3.7c2.4-2.5,3.6-5.7,3.6-9.8v-58.5c0-.4.2-.8.5-1.1.3-.3.7-.5,1.1-.5h18.5c.4,0,.8.2,1.1.5.3.3.5.7.5,1.1v58.5c0,6.3-1.4,11.9-4.3,16.8-2.9,4.9-6.9,8.6-12.2,11.2-5.2,2.6-11.3,4-18.1,4s-12.9-1.3-18.1-4Z"/>
          <path class="st3" d="M974.5,156.6c4.5,2.4,8.1,5.8,10.5,10.2,2.5,4.4,3.7,9.4,3.7,15.1s-1.3,10.6-3.8,15c-2.6,4.3-6.2,7.7-10.9,10-4.7,2.3-10.1,3.5-16.2,3.5h-15.9c-.4,0-.7.2-.7.7v31.3c0,.4-.2.8-.5,1.1s-.7.5-1.1.5h-18.5c-.4,0-.8-.2-1.1-.5-.3-.3-.5-.7-.5-1.1v-87.9c0-.4.2-.8.5-1.1s.7-.5,1.1-.5h37.6c5.9,0,11.1,1.2,15.7,3.6ZM964,190.3c2.2-2,3.3-4.6,3.3-7.8s-1.1-6-3.3-8c-2.2-2-5.1-3.1-8.6-3.1h-13.4c-.4,0-.7.2-.7.7v20.5c0,.4.2.6.7.6h13.4c3.6,0,6.4-1,8.6-3Z"/>
          <path class="st3" d="M1057.5,156.6c4.5,2.4,8.1,5.8,10.5,10.2,2.5,4.4,3.7,9.4,3.7,15.1s-1.3,10.6-3.8,15c-2.6,4.3-6.2,7.7-10.9,10s-10.1,3.5-16.2,3.5h-15.9c-.4,0-.6.2-.6.7v31.3c0,.4-.2.8-.5,1.1s-.7.5-1.1.5h-18.5c-.4,0-.8-.2-1.1-.5-.3-.3-.5-.7-.5-1.1v-87.9c0-.4.2-.8.5-1.1s.7-.5,1.1-.5h37.6c5.9,0,11.1,1.2,15.7,3.6ZM1046.9,190.3c2.2-2,3.3-4.6,3.3-7.8s-1.1-6-3.3-8c-2.2-2-5.1-3.1-8.6-3.1h-13.4c-.4,0-.6.2-.6.7v20.5c0,.4.2.6.6.6h13.4c3.6,0,6.4-1,8.6-3Z"/>
          <path class="st3" d="M1086.5,243.5c-.3-.3-.5-.7-.5-1.1v-87.9c0-.4.2-.8.5-1.1s.7-.5,1.1-.5h18.5c.4,0,.8.2,1.1.5.3.3.5.7.5,1.1v70.3c0,.4.2.7.6.7h41.5c.4,0,.8.2,1.1.5.3.3.5.7.5,1.1v15.3c0,.4-.2.8-.5,1.1s-.7.5-1.1.5h-62.1c-.4,0-.8-.2-1.1-.5Z"/>
          <path class="st3" d="M1166.1,243.5c-.3-.3-.5-.7-.5-1.1v-87.9c0-.4.2-.8.5-1.1s.7-.5,1.1-.5h18.5c.4,0,.8.2,1.1.5.3.3.5.7.5,1.1v87.9c0,.4-.2.8-.5,1.1s-.7.5-1.1.5h-18.5c-.4,0-.8-.2-1.1-.5Z"/>
          <path class="st3" d="M1269.5,171c-.3.3-.7.5-1.1.5h-40.8c-.4,0-.6.2-.6.7v16c0,.4.2.7.6.7h26.1c.4,0,.8.2,1.1.5.3.3.5.7.5,1.1v15.2c0,.4-.2.8-.5,1.1s-.7.5-1.1.5h-26.1c-.4,0-.6.2-.6.7v17.2c0,.4.2.7.6.7h40.8c.4,0,.8.2,1.1.5.3.3.5.7.5,1.1v15.3c0,.4-.2.8-.5,1.1s-.7.5-1.1.5h-61.5c-.4,0-.8-.2-1.1-.5-.3-.3-.5-.7-.5-1.1v-87.9c0-.4.2-.8.5-1.1s.7-.5,1.1-.5h61.5c.4,0,.8.2,1.1.5.3.3.5.7.5,1.1v15.3c0,.4-.2.8-.5,1.1Z"/>
          <path class="st3" d="M1332.5,242.8l-15.3-34.6c-.2-.3-.4-.5-.8-.5h-8.6c-.4,0-.7.2-.7.6v34.1c0,.4-.2.8-.5,1.1s-.7.5-1.1.5h-18.5c-.4,0-.8-.2-1.1-.5-.3-.3-.5-.7-.5-1.1v-87.9c0-.4.2-.8.5-1.1s.7-.5,1.1-.5h38.6c5.7,0,10.7,1.2,15.1,3.5,4.3,2.3,7.7,5.7,10.1,9.9,2.4,4.3,3.6,9.2,3.6,14.8s-1.4,10.8-4.3,15.1c-2.9,4.2-6.8,7.3-12,9.2-.4.2-.6.5-.4.9l17.2,35.8c.2.3.3.6.3.8,0,.7-.5,1-1.4,1h-19.5c-.9,0-1.5-.4-1.8-1.2ZM1307.1,172.1v18.5c0,.4.2.6.7.6h14.4c3.2,0,5.8-.9,7.8-2.7,2-1.8,3-4.1,3-7.1s-1-5.5-3-7.3c-2-1.8-4.6-2.7-7.8-2.7h-14.4c-.4,0-.7.2-.7.7Z"/>
          <path class="st3" d="M1384.8,241.5c-5.3-2.3-9.4-5.6-12.4-9.9-2.9-4.3-4.4-9.2-4.4-14.9v-2.5c0-.4.2-.8.5-1.1s.7-.5,1.1-.5h18.1c.4,0,.8.2,1.1.5.3.3.5.7.5,1.1v1.6c0,2.9,1.4,5.4,4.3,7.5,2.9,2.1,6.7,3.2,11.6,3.2s6.6-.8,8.5-2.5c1.8-1.6,2.7-3.6,2.7-5.7s-.5-3.1-1.6-4.2c-1.1-1.1-2.5-2-4.4-2.7-1.8-.7-4.6-1.8-8.5-3.1-.5-.3-1-.5-1.6-.6-.5-.1-1-.3-1.4-.5-5.6-1.8-10.5-3.8-14.7-5.9-4.2-2.1-7.7-5.1-10.7-8.8-2.9-3.8-4.4-8.4-4.4-14s1.4-10.1,4.2-14.1c2.8-4,6.7-7.1,11.8-9.3,5-2.2,10.7-3.2,17-3.2s12.7,1.2,18,3.6c5.3,2.4,9.5,5.9,12.5,10.3,3,4.4,4.5,9.5,4.5,15.2v1.8c0,.4-.2.8-.5,1.1s-.7.5-1.1.5h-18.1c-.4,0-.8-.2-1.1-.5-.3-.3-.5-.7-.5-1.1v-.9c0-3-1.3-5.7-4-8.1-2.7-2.3-6.3-3.5-10.8-3.5s-6,.7-7.9,2.1c-1.9,1.4-2.9,3.3-2.9,5.8s.6,3.5,1.8,4.7c1.2,1.3,3.1,2.4,5.7,3.5,2.6,1.1,6.5,2.5,11.8,4.2,6.1,2.1,10.8,3.9,14.2,5.5,3.4,1.6,6.6,4.1,9.6,7.6,3,3.5,4.5,8.1,4.5,13.8s-1.4,10.5-4.3,14.6c-2.9,4.1-6.9,7.2-12,9.4-5.2,2.2-11.2,3.3-18,3.3s-13.5-1.1-18.8-3.4Z"/>
        </g>
        <g class="st1">
          <path class="st0" d="M415.7,153.4c.3.3.5.7.5,1.1v15.5c0,.4-.2.8-.5,1.1s-.7.5-1.1.5h-22.8c-.4,0-.6.2-.6.7v70.2c0,.4-.2.8-.5,1.1s-.7.5-1.1.5h-18.5c-.4,0-.8-.2-1.1-.5-.3-.3-.5-.7-.5-1.1v-70.2c0-.4-.2-.7-.6-.7h-22c-.4,0-.8-.2-1.1-.5-.3-.3-.5-.7-.5-1.1v-15.5c0-.4.1-.8.5-1.1s.7-.5,1.1-.5h67.6c.4,0,.8.2,1.1.5Z"/>
          <path class="st0" d="M494.8,171c-.3.3-.7.5-1.1.5h-40.8c-.4,0-.6.2-.6.7v16c0,.4.2.7.6.7h26.1c.4,0,.8.2,1.1.5.3.3.5.7.5,1.1v15.2c0,.4-.2.8-.5,1.1s-.7.5-1.1.5h-26.1c-.4,0-.6.2-.6.7v17.2c0,.4.2.7.6.7h40.8c.4,0,.8.2,1.1.5.3.3.5.7.5,1.1v15.3c0,.4-.2.8-.5,1.1-.3.3-.7.5-1.1.5h-61.5c-.4,0-.8-.2-1.1-.5-.3-.3-.5-.7-.5-1.1v-87.9c0-.4.2-.8.5-1.1s.7-.5,1.1-.5h61.5c.4,0,.8.2,1.1.5.3.3.5.7.5,1.1v15.3c0,.4-.2.8-.5,1.1Z"/>
          <path class="st0" d="M526,240.8c-5.2-2.8-9.3-6.7-12.2-11.7-2.9-5-4.4-10.8-4.4-17.4v-26.6c0-6.6,1.5-12.4,4.4-17.4,2.9-5,7-8.9,12.2-11.6,5.2-2.8,11.3-4.2,18.3-4.2s12.9,1.3,18.2,4c5.3,2.6,9.4,6.3,12.3,10.9,2.9,4.6,4.4,9.7,4.4,15.2v.6c0,.4-.2.8-.5,1.1s-.7.5-1.1.5h-18.5c-.4,0-.8-.2-1.1-.5-.3-.3-.5-.7-.5-1.1,0-3.4-1.2-6.3-3.6-8.6-2.4-2.4-5.6-3.6-9.7-3.6s-7.2,1.3-9.6,3.9c-2.4,2.6-3.6,6-3.6,10.1v28c0,4.2,1.3,7.5,4,10.1,2.7,2.6,6.1,3.9,10.1,3.9s6.9-1,9.2-3.1c2.3-2,3.5-4.9,3.5-8.5v-3.6c0-.4-.2-.7-.6-.7h-13c-.4,0-.8-.2-1.1-.5-.3-.3-.5-.7-.5-1.1v-14.3c0-.4.2-.8.5-1.1s.7-.5,1.1-.5h33.3c.4,0,.8.2,1.1.5.3.3.5.7.5,1.1v17.7c0,6.5-1.5,12.2-4.4,17.2-2.9,4.9-7,8.8-12.2,11.4-5.2,2.7-11.3,4-18.3,4s-13-1.4-18.3-4.2Z"/>
          <path class="st0" d="M596.1,243.5c-.3-.3-.5-.7-.5-1.1v-87.9c0-.4.2-.8.5-1.1s.7-.5,1.1-.5h18.5c.4,0,.8.2,1.1.5.3.3.5.7.5,1.1v87.9c0,.4-.2.8-.5,1.1s-.7.5-1.1.5h-18.5c-.4,0-.8-.2-1.1-.5Z"/>
          <path class="st0" d="M650.4,241c-5.2-2.7-9.3-6.5-12.2-11.4-2.9-4.9-4.4-10.7-4.4-17.2v-28.1c0-6.4,1.5-12.1,4.4-17,2.9-4.9,7-8.7,12.2-11.4,5.2-2.7,11.3-4,18.3-4s13,1.3,18.3,3.8c5.2,2.6,9.3,6.2,12.2,10.8,2.9,4.6,4.4,10,4.4,16.1s-.2.8-.5,1c-.3.3-.7.4-1.1.4l-18.5,1.2c-1,0-1.6-.5-1.6-1.4,0-4.1-1.2-7.3-3.6-9.8-2.4-2.4-5.6-3.6-9.6-3.6s-7.2,1.2-9.6,3.7c-2.4,2.5-3.6,5.7-3.6,9.7v29.5c0,4,1.2,7.2,3.6,9.6,2.4,2.4,5.6,3.6,9.6,3.6s7.2-1.2,9.6-3.6c2.4-2.4,3.6-5.6,3.6-9.6s.5-1.4,1.6-1.4l18.5.9c.4,0,.8.1,1.1.4.3.3.5.6.5.9,0,6.2-1.5,11.6-4.4,16.2-2.9,4.7-7,8.3-12.2,10.9-5.2,2.6-11.3,3.8-18.3,3.8s-13-1.3-18.3-4Z"/>
          <path class="st0" d="M765.1,241.5c-5.3-2.3-9.4-5.6-12.3-9.9-2.9-4.3-4.4-9.2-4.4-14.9v-2.5c0-.4.2-.8.5-1.1s.7-.5,1.1-.5h18.1c.4,0,.8.2,1.1.5.3.3.5.7.5,1.1v1.6c0,2.9,1.4,5.4,4.3,7.5,2.9,2.1,6.7,3.2,11.6,3.2s6.6-.8,8.5-2.5c1.8-1.6,2.7-3.6,2.7-5.7s-.5-3.1-1.6-4.2c-1.1-1.1-2.5-2-4.4-2.7-1.8-.7-4.6-1.8-8.5-3.1-.5-.3-1-.5-1.6-.6-.5-.1-1-.3-1.4-.5-5.6-1.8-10.5-3.8-14.7-5.9-4.2-2.1-7.7-5.1-10.7-8.8-2.9-3.8-4.4-8.4-4.4-14s1.4-10.1,4.2-14.1c2.8-4,6.7-7.1,11.8-9.3,5-2.2,10.7-3.2,17-3.2s12.7,1.2,18,3.6c5.3,2.4,9.5,5.9,12.5,10.3,3,4.4,4.5,9.5,4.5,15.2v1.8c0,.4-.2.8-.5,1.1s-.7.5-1.1.5h-18.1c-.4,0-.8-.2-1.1-.5-.3-.3-.5-.7-.5-1.1v-.9c0-3-1.3-5.7-4-8.1-2.7-2.3-6.3-3.5-10.8-3.5s-6,.7-7.9,2.1c-1.9,1.4-2.9,3.3-2.9,5.8s.6,3.5,1.8,4.7c1.2,1.3,3.1,2.4,5.7,3.5,2.6,1.1,6.5,2.5,11.8,4.2,6.1,2.1,10.8,3.9,14.2,5.5s6.6,4.1,9.6,7.6c3,3.5,4.5,8.1,4.5,13.8s-1.4,10.5-4.3,14.6c-2.9,4.1-6.9,7.2-12,9.4-5.2,2.2-11.2,3.3-18,3.3s-13.5-1.1-18.8-3.4Z"/>
          <path class="st0" d="M850,241c-5.2-2.6-9.3-6.4-12.2-11.2-2.9-4.9-4.4-10.4-4.4-16.8v-58.5c0-.4.2-.8.5-1.1s.7-.5,1.1-.5h18.5c.4,0,.8.2,1.1.5.3.3.5.7.5,1.1v58.5c0,4.1,1.2,7.3,3.6,9.8,2.4,2.5,5.6,3.7,9.6,3.7s7-1.2,9.4-3.7c2.4-2.5,3.6-5.7,3.6-9.8v-58.5c0-.4.2-.8.5-1.1.3-.3.7-.5,1.1-.5h18.5c.4,0,.8.2,1.1.5.3.3.5.7.5,1.1v58.5c0,6.3-1.4,11.9-4.3,16.8-2.9,4.9-6.9,8.6-12.2,11.2-5.2,2.6-11.3,4-18.1,4s-12.9-1.3-18.1-4Z"/>
          <path class="st0" d="M974.5,156.6c4.5,2.4,8.1,5.8,10.5,10.2,2.5,4.4,3.7,9.4,3.7,15.1s-1.3,10.6-3.8,15c-2.6,4.3-6.2,7.7-10.9,10-4.7,2.3-10.1,3.5-16.2,3.5h-15.9c-.4,0-.7.2-.7.7v31.3c0,.4-.2.8-.5,1.1s-.7.5-1.1.5h-18.5c-.4,0-.8-.2-1.1-.5-.3-.3-.5-.7-.5-1.1v-87.9c0-.4.2-.8.5-1.1s.7-.5,1.1-.5h37.6c5.9,0,11.1,1.2,15.7,3.6ZM964,190.3c2.2-2,3.3-4.6,3.3-7.8s-1.1-6-3.3-8c-2.2-2-5.1-3.1-8.6-3.1h-13.4c-.4,0-.7.2-.7.7v20.5c0,.4.2.6.7.6h13.4c3.6,0,6.4-1,8.6-3Z"/>
          <path class="st0" d="M1057.5,156.6c4.5,2.4,8.1,5.8,10.5,10.2,2.5,4.4,3.7,9.4,3.7,15.1s-1.3,10.6-3.8,15c-2.6,4.3-6.2,7.7-10.9,10s-10.1,3.5-16.2,3.5h-15.9c-.4,0-.6.2-.6.7v31.3c0,.4-.2.8-.5,1.1s-.7.5-1.1.5h-18.5c-.4,0-.8-.2-1.1-.5-.3-.3-.5-.7-.5-1.1v-87.9c0-.4.2-.8.5-1.1s.7-.5,1.1-.5h37.6c5.9,0,11.1,1.2,15.7,3.6ZM1046.9,190.3c2.2-2,3.3-4.6,3.3-7.8s-1.1-6-3.3-8c-2.2-2-5.1-3.1-8.6-3.1h-13.4c-.4,0-.6.2-.6.7v20.5c0,.4.2.6.6.6h13.4c3.6,0,6.4-1,8.6-3Z"/>
          <path class="st0" d="M1086.5,243.5c-.3-.3-.5-.7-.5-1.1v-87.9c0-.4.2-.8.5-1.1s.7-.5,1.1-.5h18.5c.4,0,.8.2,1.1.5.3.3.5.7.5,1.1v70.3c0,.4.2.7.6.7h41.5c.4,0,.8.2,1.1.5.3.3.5.7.5,1.1v15.3c0,.4-.2.8-.5,1.1s-.7.5-1.1.5h-62.1c-.4,0-.8-.2-1.1-.5Z"/>
          <path class="st0" d="M1166.1,243.5c-.3-.3-.5-.7-.5-1.1v-87.9c0-.4.2-.8.5-1.1s.7-.5,1.1-.5h18.5c.4,0,.8.2,1.1.5.3.3.5.7.5,1.1v87.9c0,.4-.2.8-.5,1.1s-.7.5-1.1.5h-18.5c-.4,0-.8-.2-1.1-.5Z"/>
          <path class="st0" d="M1269.5,171c-.3.3-.7.5-1.1.5h-40.8c-.4,0-.6.2-.6.7v16c0,.4.2.7.6.7h26.1c.4,0,.8.2,1.1.5.3.3.5.7.5,1.1v15.2c0,.4-.2.8-.5,1.1s-.7.5-1.1.5h-26.1c-.4,0-.6.2-.6.7v17.2c0,.4.2.7.6.7h40.8c.4,0,.8.2,1.1.5.3.3.5.7.5,1.1v15.3c0,.4-.2.8-.5,1.1s-.7.5-1.1.5h-61.5c-.4,0-.8-.2-1.1-.5-.3-.3-.5-.7-.5-1.1v-87.9c0-.4.2-.8.5-1.1s.7-.5,1.1-.5h61.5c.4,0,.8.2,1.1.5.3.3.5.7.5,1.1v15.3c0,.4-.2.8-.5,1.1Z"/>
          <path class="st0" d="M1332.5,242.8l-15.3-34.6c-.2-.3-.4-.5-.8-.5h-8.6c-.4,0-.7.2-.7.6v34.1c0,.4-.2.8-.5,1.1s-.7.5-1.1.5h-18.5c-.4,0-.8-.2-1.1-.5-.3-.3-.5-.7-.5-1.1v-87.9c0-.4.2-.8.5-1.1s.7-.5,1.1-.5h38.6c5.7,0,10.7,1.2,15.1,3.5,4.3,2.3,7.7,5.7,10.1,9.9,2.4,4.3,3.6,9.2,3.6,14.8s-1.4,10.8-4.3,15.1c-2.9,4.2-6.8,7.3-12,9.2-.4.2-.6.5-.4.9l17.2,35.8c.2.3.3.6.3.8,0,.7-.5,1-1.4,1h-19.5c-.9,0-1.5-.4-1.8-1.2ZM1307.1,172.1v18.5c0,.4.2.6.7.6h14.4c3.2,0,5.8-.9,7.8-2.7,2-1.8,3-4.1,3-7.1s-1-5.5-3-7.3c-2-1.8-4.6-2.7-7.8-2.7h-14.4c-.4,0-.7.2-.7.7Z"/>
          <path class="st0" d="M1384.8,241.5c-5.3-2.3-9.4-5.6-12.4-9.9-2.9-4.3-4.4-9.2-4.4-14.9v-2.5c0-.4.2-.8.5-1.1s.7-.5,1.1-.5h18.1c.4,0,.8.2,1.1.5.3.3.5.7.5,1.1v1.6c0,2.9,1.4,5.4,4.3,7.5,2.9,2.1,6.7,3.2,11.6,3.2s6.6-.8,8.5-2.5c1.8-1.6,2.7-3.6,2.7-5.7s-.5-3.1-1.6-4.2c-1.1-1.1-2.5-2-4.4-2.7-1.8-.7-4.6-1.8-8.5-3.1-.5-.3-1-.5-1.6-.6-.5-.1-1-.3-1.4-.5-5.6-1.8-10.5-3.8-14.7-5.9-4.2-2.1-7.7-5.1-10.7-8.8-2.9-3.8-4.4-8.4-4.4-14s1.4-10.1,4.2-14.1c2.8-4,6.7-7.1,11.8-9.3,5-2.2,10.7-3.2,17-3.2s12.7,1.2,18,3.6c5.3,2.4,9.5,5.9,12.5,10.3,3,4.4,4.5,9.5,4.5,15.2v1.8c0,.4-.2.8-.5,1.1s-.7.5-1.1.5h-18.1c-.4,0-.8-.2-1.1-.5-.3-.3-.5-.7-.5-1.1v-.9c0-3-1.3-5.7-4-8.1-2.7-2.3-6.3-3.5-10.8-3.5s-6,.7-7.9,2.1c-1.9,1.4-2.9,3.3-2.9,5.8s.6,3.5,1.8,4.7c1.2,1.3,3.1,2.4,5.7,3.5,2.6,1.1,6.5,2.5,11.8,4.2,6.1,2.1,10.8,3.9,14.2,5.5,3.4,1.6,6.6,4.1,9.6,7.6,3,3.5,4.5,8.1,4.5,13.8s-1.4,10.5-4.3,14.6c-2.9,4.1-6.9,7.2-12,9.4-5.2,2.2-11.2,3.3-18,3.3s-13.5-1.1-18.8-3.4Z"/>
        </g>
        <g class="st1">
          <path class="st3" d="M234.4,369.5c-5.3-2.3-9.4-5.6-12.4-9.9-2.9-4.3-4.4-9.2-4.4-14.9v-2.5c0-.4.2-.8.5-1.1s.7-.5,1.1-.5h18.1c.4,0,.8.2,1.1.5.3.3.5.7.5,1.1v1.6c0,2.9,1.4,5.4,4.3,7.5,2.9,2.1,6.7,3.2,11.6,3.2s6.6-.8,8.5-2.5c1.8-1.6,2.7-3.6,2.7-5.7s-.5-3.1-1.6-4.2c-1.1-1.1-2.5-2-4.4-2.7-1.8-.7-4.6-1.8-8.5-3.1-.5-.3-1-.5-1.6-.6s-1-.3-1.4-.5c-5.6-1.8-10.5-3.8-14.7-5.9-4.2-2.1-7.7-5.1-10.7-8.8-2.9-3.8-4.4-8.4-4.4-14s1.4-10.1,4.2-14.1c2.8-4,6.7-7.1,11.8-9.3,5-2.2,10.7-3.2,17-3.2s12.7,1.2,18,3.6c5.3,2.4,9.5,5.9,12.5,10.3,3,4.4,4.5,9.5,4.5,15.2v1.8c0,.4-.2.8-.5,1.1s-.7.5-1.1.5h-18.1c-.4,0-.8-.2-1.1-.5-.3-.3-.5-.7-.5-1.1v-.9c0-3-1.3-5.7-4-8.1-2.7-2.3-6.3-3.5-10.8-3.5s-6,.7-7.9,2.1c-1.9,1.4-2.9,3.3-2.9,5.8s.6,3.5,1.8,4.7c1.2,1.3,3.1,2.4,5.7,3.5,2.6,1.1,6.5,2.5,11.8,4.2,6.1,2.1,10.8,3.9,14.2,5.5,3.4,1.6,6.6,4.1,9.6,7.6,3,3.5,4.5,8.1,4.5,13.8s-1.4,10.5-4.3,14.6c-2.9,4.1-6.9,7.2-12,9.4-5.2,2.2-11.2,3.3-18,3.3s-13.5-1.1-18.8-3.4Z"/>
          <path class="st3" d="M350.9,281.4c.3-.3.7-.5,1.1-.5h18.5c.4,0,.8.2,1.1.5.3.3.5.7.5,1.1v87.9c0,.4-.2.8-.5,1.1s-.7.5-1.1.5h-18.5c-.4,0-.8-.2-1.1-.5-.3-.3-.5-.7-.5-1.1v-34.6c0-.4-.2-.7-.6-.7h-24.3c-.4,0-.6.2-.6.7v34.6c0,.4-.2.8-.5,1.1s-.7.5-1.1.5h-18.5c-.4,0-.8-.2-1.1-.5-.3-.3-.5-.7-.5-1.1v-87.9c0-.4.2-.8.5-1.1s.7-.5,1.1-.5h18.5c.4,0,.8.2,1.1.5.3.3.5.7.5,1.1v33.5c0,.4.2.7.6.7h24.3c.4,0,.6-.2.6-.7v-33.5c0-.4.2-.8.5-1.1Z"/>
        </g>
        <g class="st1">
          <path class="st0" d="M234.4,369.5c-5.3-2.3-9.4-5.6-12.4-9.9-2.9-4.3-4.4-9.2-4.4-14.9v-2.5c0-.4.2-.8.5-1.1s.7-.5,1.1-.5h18.1c.4,0,.8.2,1.1.5.3.3.5.7.5,1.1v1.6c0,2.9,1.4,5.4,4.3,7.5,2.9,2.1,6.7,3.2,11.6,3.2s6.6-.8,8.5-2.5c1.8-1.6,2.7-3.6,2.7-5.7s-.5-3.1-1.6-4.2c-1.1-1.1-2.5-2-4.4-2.7-1.8-.7-4.6-1.8-8.5-3.1-.5-.3-1-.5-1.6-.6s-1-.3-1.4-.5c-5.6-1.8-10.5-3.8-14.7-5.9-4.2-2.1-7.7-5.1-10.7-8.8-2.9-3.8-4.4-8.4-4.4-14s1.4-10.1,4.2-14.1c2.8-4,6.7-7.1,11.8-9.3,5-2.2,10.7-3.2,17-3.2s12.7,1.2,18,3.6c5.3,2.4,9.5,5.9,12.5,10.3,3,4.4,4.5,9.5,4.5,15.2v1.8c0,.4-.2.8-.5,1.1s-.7.5-1.1.5h-18.1c-.4,0-.8-.2-1.1-.5-.3-.3-.5-.7-.5-1.1v-.9c0-3-1.3-5.7-4-8.1-2.7-2.3-6.3-3.5-10.8-3.5s-6,.7-7.9,2.1c-1.9,1.4-2.9,3.3-2.9,5.8s.6,3.5,1.8,4.7c1.2,1.3,3.1,2.4,5.7,3.5,2.6,1.1,6.5,2.5,11.8,4.2,6.1,2.1,10.8,3.9,14.2,5.5,3.4,1.6,6.6,4.1,9.6,7.6,3,3.5,4.5,8.1,4.5,13.8s-1.4,10.5-4.3,14.6c-2.9,4.1-6.9,7.2-12,9.4-5.2,2.2-11.2,3.3-18,3.3s-13.5-1.1-18.8-3.4Z"/>
          <path class="st0" d="M350.9,281.4c.3-.3.7-.5,1.1-.5h18.5c.4,0,.8.2,1.1.5.3.3.5.7.5,1.1v87.9c0,.4-.2.8-.5,1.1s-.7.5-1.1.5h-18.5c-.4,0-.8-.2-1.1-.5-.3-.3-.5-.7-.5-1.1v-34.6c0-.4-.2-.7-.6-.7h-24.3c-.4,0-.6.2-.6.7v34.6c0,.4-.2.8-.5,1.1s-.7.5-1.1.5h-18.5c-.4,0-.8-.2-1.1-.5-.3-.3-.5-.7-.5-1.1v-87.9c0-.4.2-.8.5-1.1s.7-.5,1.1-.5h18.5c.4,0,.8.2,1.1.5.3.3.5.7.5,1.1v33.5c0,.4.2.7.6.7h24.3c.4,0,.6-.2.6-.7v-33.5c0-.4.2-.8.5-1.1Z"/>
        </g>
        <g class="st1">
          <path class="st3" d="M403.6,369.2c-5.3-2.8-9.5-6.8-12.4-11.9-2.9-5.1-4.4-11-4.4-17.8v-26c0-6.6,1.5-12.4,4.4-17.5,2.9-5.1,7.1-9,12.4-11.8,5.3-2.8,11.5-4.2,18.5-4.2s13.2,1.4,18.6,4.2c5.4,2.8,9.5,6.8,12.5,11.8,2.9,5.1,4.4,10.9,4.4,17.5v26c0,6.8-1.5,12.7-4.4,17.8-2.9,5.1-7.1,9.1-12.5,11.9-5.4,2.8-11.6,4.2-18.6,4.2s-13.2-1.4-18.5-4.2ZM432.2,350.9c2.6-2.7,3.8-6.3,3.8-10.8v-26.9c0-4.4-1.3-8-3.8-10.7-2.6-2.7-5.9-4.1-10.1-4.1s-7.4,1.4-9.9,4.1c-2.6,2.7-3.8,6.3-3.8,10.7v26.9c0,4.5,1.3,8.1,3.8,10.8,2.6,2.7,5.9,4,9.9,4s7.5-1.3,10.1-4Z"/>
        </g>
        <g class="st1">
          <path class="st0" d="M403.6,369.2c-5.3-2.8-9.5-6.8-12.4-11.9-2.9-5.1-4.4-11-4.4-17.8v-26c0-6.6,1.5-12.4,4.4-17.5,2.9-5.1,7.1-9,12.4-11.8,5.3-2.8,11.5-4.2,18.5-4.2s13.2,1.4,18.6,4.2c5.4,2.8,9.5,6.8,12.5,11.8,2.9,5.1,4.4,10.9,4.4,17.5v26c0,6.8-1.5,12.7-4.4,17.8-2.9,5.1-7.1,9.1-12.5,11.9-5.4,2.8-11.6,4.2-18.6,4.2s-13.2-1.4-18.5-4.2ZM432.2,350.9c2.6-2.7,3.8-6.3,3.8-10.8v-26.9c0-4.4-1.3-8-3.8-10.7-2.6-2.7-5.9-4.1-10.1-4.1s-7.4,1.4-9.9,4.1c-2.6,2.7-3.8,6.3-3.8,10.7v26.9c0,4.5,1.3,8.1,3.8,10.8,2.6,2.7,5.9,4,9.9,4s7.5-1.3,10.1-4Z"/>
        </g>
        <g class="st1">
          <path class="st3" d="M492.4,370.7l-24.2-88v-.5c-.1-.8.3-1.2,1.3-1.2h19.8c.9,0,1.4.4,1.7,1.3l11.3,47.3c0,.3.2.5.4.5s.3-.2.4-.5l10.1-47.2c.2-1,.7-1.4,1.7-1.4h18.1c.9,0,1.4.4,1.7,1.3l11.3,47.3c0,.3.2.5.4.5s.3-.2.4-.5l10.5-47.2c.2-1,.7-1.4,1.7-1.4h19.2c1.2,0,1.7.6,1.4,1.7l-22,88c-.3.9-.9,1.3-1.8,1.3h-18.6c-1,0-1.5-.5-1.7-1.4l-11.3-50.2c0-.3-.2-.5-.4-.5s-.3.2-.4.5l-10.1,50.2c-.2,1-.7,1.4-1.7,1.4h-17.4c-1,0-1.6-.4-1.8-1.3Z"/>
        </g>
        <g class="st1">
          <path class="st0" d="M492.4,370.7l-24.2-88v-.5c-.1-.8.3-1.2,1.3-1.2h19.8c.9,0,1.4.4,1.7,1.3l11.3,47.3c0,.3.2.5.4.5s.3-.2.4-.5l10.1-47.2c.2-1,.7-1.4,1.7-1.4h18.1c.9,0,1.4.4,1.7,1.3l11.3,47.3c0,.3.2.5.4.5s.3-.2.4-.5l10.5-47.2c.2-1,.7-1.4,1.7-1.4h19.2c1.2,0,1.7.6,1.4,1.7l-22,88c-.3.9-.9,1.3-1.8,1.3h-18.6c-1,0-1.5-.5-1.7-1.4l-11.3-50.2c0-.3-.2-.5-.4-.5s-.3.2-.4.5l-10.1,50.2c-.2,1-.7,1.4-1.7,1.4h-17.4c-1,0-1.6-.4-1.8-1.3Z"/>
        </g>
        <g class="st1">
          <path class="st3" d="M608.5,369c-5.2-2.7-9.3-6.5-12.2-11.4-2.9-4.9-4.4-10.7-4.4-17.2v-28.1c0-6.4,1.5-12.1,4.4-17,2.9-4.9,7-8.7,12.2-11.4,5.2-2.7,11.3-4,18.3-4s13,1.3,18.3,3.8c5.2,2.6,9.3,6.2,12.2,10.8,2.9,4.6,4.4,10,4.4,16.1s-.2.8-.5,1c-.3.3-.7.4-1.1.4l-18.5,1.2c-1,0-1.6-.5-1.6-1.4,0-4.1-1.2-7.3-3.6-9.8-2.4-2.4-5.6-3.6-9.6-3.6s-7.2,1.2-9.6,3.7c-2.4,2.5-3.6,5.7-3.6,9.7v29.5c0,4,1.2,7.2,3.6,9.6,2.4,2.4,5.6,3.6,9.6,3.6s7.2-1.2,9.6-3.6c2.4-2.4,3.6-5.6,3.6-9.6s.5-1.4,1.6-1.4l18.5.9c.4,0,.8.1,1.1.4.3.3.5.6.5.9,0,6.2-1.5,11.6-4.4,16.2-2.9,4.7-7,8.3-12.2,10.9-5.2,2.6-11.3,3.8-18.3,3.8s-13-1.3-18.3-4Z"/>
        </g>
        <g class="st1">
          <path class="st0" d="M608.5,369c-5.2-2.7-9.3-6.5-12.2-11.4-2.9-4.9-4.4-10.7-4.4-17.2v-28.1c0-6.4,1.5-12.1,4.4-17,2.9-4.9,7-8.7,12.2-11.4,5.2-2.7,11.3-4,18.3-4s13,1.3,18.3,3.8c5.2,2.6,9.3,6.2,12.2,10.8,2.9,4.6,4.4,10,4.4,16.1s-.2.8-.5,1c-.3.3-.7.4-1.1.4l-18.5,1.2c-1,0-1.6-.5-1.6-1.4,0-4.1-1.2-7.3-3.6-9.8-2.4-2.4-5.6-3.6-9.6-3.6s-7.2,1.2-9.6,3.7c-2.4,2.5-3.6,5.7-3.6,9.7v29.5c0,4,1.2,7.2,3.6,9.6,2.4,2.4,5.6,3.6,9.6,3.6s7.2-1.2,9.6-3.6c2.4-2.4,3.6-5.6,3.6-9.6s.5-1.4,1.6-1.4l18.5.9c.4,0,.8.1,1.1.4.3.3.5.6.5.9,0,6.2-1.5,11.6-4.4,16.2-2.9,4.7-7,8.3-12.2,10.9-5.2,2.6-11.3,3.8-18.3,3.8s-13-1.3-18.3-4Z"/>
        </g>
        <g class="st1">
          <path class="st3" d="M732,370.7l-3.4-11.6c-.2-.3-.4-.5-.6-.5h-29.6c-.3,0-.5.2-.6.5l-3.4,11.6c-.3.9-.9,1.3-1.8,1.3h-19.9c-.5,0-.9-.2-1.2-.5-.3-.3-.3-.8-.1-1.4l27.8-87.9c.3-.9.8-1.3,1.7-1.3h24.6c.9,0,1.4.4,1.7,1.3l27.9,87.9c0,.2.1.4.1.7,0,.8-.5,1.2-1.4,1.2h-19.9c-1,0-1.6-.4-1.8-1.3ZM703.4,341.9h19.4c.5,0,.7-.3.5-.8l-9.9-33.4c0-.3-.2-.5-.4-.5-.2,0-.3.2-.4.5l-9.8,33.4c0,.5,0,.8.5.8Z"/>
        </g>
        <g class="st1">
          <path class="st0" d="M732,370.7l-3.4-11.6c-.2-.3-.4-.5-.6-.5h-29.6c-.3,0-.5.2-.6.5l-3.4,11.6c-.3.9-.9,1.3-1.8,1.3h-19.9c-.5,0-.9-.2-1.2-.5-.3-.3-.3-.8-.1-1.4l27.8-87.9c.3-.9.8-1.3,1.7-1.3h24.6c.9,0,1.4.4,1.7,1.3l27.9,87.9c0,.2.1.4.1.7,0,.8-.5,1.2-1.4,1.2h-19.9c-1,0-1.6-.4-1.8-1.3ZM703.4,341.9h19.4c.5,0,.7-.3.5-.8l-9.9-33.4c0-.3-.2-.5-.4-.5-.2,0-.3.2-.4.5l-9.8,33.4c0,.5,0,.8.5.8Z"/>
        </g>
        <g class="st1">
          <path class="st3" d="M780.1,369.5c-5.3-2.3-9.4-5.6-12.4-9.9-2.9-4.3-4.4-9.2-4.4-14.9v-2.5c0-.4.2-.8.5-1.1s.7-.5,1.1-.5h18.1c.4,0,.8.2,1.1.5.3.3.5.7.5,1.1v1.6c0,2.9,1.4,5.4,4.3,7.5,2.9,2.1,6.7,3.2,11.6,3.2s6.6-.8,8.5-2.5c1.8-1.6,2.7-3.6,2.7-5.7s-.5-3.1-1.6-4.2c-1.1-1.1-2.5-2-4.4-2.7-1.8-.7-4.6-1.8-8.5-3.1-.5-.3-1-.5-1.6-.6-.5-.1-1-.3-1.4-.5-5.6-1.8-10.5-3.8-14.7-5.9-4.2-2.1-7.7-5.1-10.7-8.8-2.9-3.8-4.4-8.4-4.4-14s1.4-10.1,4.2-14.1c2.8-4,6.7-7.1,11.8-9.3,5-2.2,10.7-3.2,17-3.2s12.7,1.2,18,3.6c5.3,2.4,9.5,5.9,12.5,10.3,3,4.4,4.6,9.5,4.6,15.2v1.8c0,.4-.2.8-.5,1.1s-.7.5-1.1.5h-18.1c-.4,0-.8-.2-1.1-.5-.3-.3-.5-.7-.5-1.1v-.9c0-3-1.3-5.7-4-8.1-2.7-2.3-6.3-3.5-10.8-3.5s-6,.7-7.9,2.1c-1.9,1.4-2.9,3.3-2.9,5.8s.6,3.5,1.8,4.7c1.2,1.3,3.1,2.4,5.7,3.5,2.6,1.1,6.5,2.5,11.8,4.2,6.1,2.1,10.8,3.9,14.2,5.5s6.6,4.1,9.6,7.6c3,3.5,4.5,8.1,4.5,13.8s-1.4,10.5-4.3,14.6c-2.9,4.1-6.9,7.2-12,9.4-5.2,2.2-11.2,3.3-18,3.3s-13.5-1.1-18.8-3.4Z"/>
          <path class="st3" d="M913.1,299c-.3.3-.7.5-1.1.5h-40.8c-.4,0-.7.2-.7.7v16c0,.4.2.7.7.7h26.1c.4,0,.8.2,1.1.5.3.3.5.7.5,1.1v15.2c0,.4-.2.8-.5,1.1s-.7.5-1.1.5h-26.1c-.4,0-.7.2-.7.7v17.2c0,.4.2.7.7.7h40.8c.4,0,.8.2,1.1.5.3.3.5.7.5,1.1v15.3c0,.4-.2.8-.5,1.1s-.7.5-1.1.5h-61.5c-.4,0-.8-.2-1.1-.5-.3-.3-.5-.7-.5-1.1v-87.9c0-.4.2-.8.5-1.1s.7-.5,1.1-.5h61.5c.4,0,.8.2,1.1.5.3.3.5.7.5,1.1v15.3c0,.4-.2.8-.5,1.1Z"/>
          <path class="st3" d="M988,353.2c0,.2.3.3.5.3h33.2c.4,0,.8.2,1.1.5.3.3.5.7.5,1.1v15.3c0,.4-.2.8-.5,1.1s-.7.5-1.1.5h-61c-.4,0-.8-.2-1.1-.5-.3-.3-.5-.7-.5-1.1v-14.4c0-.8.3-1.4.8-2,5.2-4.9,12.1-11.8,20.7-20.9l7.8-8.2c7.9-8.1,11.8-14.1,11.8-17.8s-.9-4.6-2.8-6.2c-1.9-1.6-4.3-2.5-7.2-2.5s-5.3.8-7.2,2.5c-1.8,1.6-2.7,3.8-2.7,6.5v3.1c0,.4-.2.8-.5,1.1s-.7.5-1.1.5h-18.7c-.4,0-.8-.2-1.1-.5-.3-.3-.5-.7-.5-1.1v-6.5c.3-4.9,1.9-9.1,4.8-12.7,2.9-3.6,6.6-6.4,11.3-8.4,4.7-2,9.9-2.9,15.6-2.9s12,1.2,16.8,3.6c4.8,2.4,8.5,5.6,11,9.7,2.6,4.1,3.8,8.6,3.8,13.5s-.9,7.1-2.6,10.8c-1.7,3.6-4.3,7.5-7.8,11.6-2.4,2.9-5.2,5.9-8.2,9-3,3-7.2,7.1-12.6,12.2l-2.6,2.5c-.2.2-.2.3-.1.5Z"/>
          <path class="st3" d="M1046.5,365.1c-5.7-5.6-8.6-13.2-8.6-22.8v-31.7c0-9.5,2.9-17,8.6-22.5s13.6-8.2,23.5-8.2,17.9,2.8,23.7,8.3c5.8,5.5,8.7,13,8.7,22.4v31.7c0,9.6-2.9,17.2-8.7,22.8-5.8,5.6-13.7,8.4-23.7,8.4s-17.8-2.8-23.5-8.4ZM1077.9,351.9c1.9-2,2.9-4.8,2.9-8.4v-33.7c0-3.6-1-6.3-2.9-8.4-2-2-4.6-3.1-7.9-3.1s-5.8,1-7.7,3.1c-1.9,2-2.9,4.8-2.9,8.4v33.7c0,3.6.9,6.3,2.8,8.4,1.9,2,4.4,3.1,7.7,3.1s5.9-1,7.9-3.1Z"/>
          <path class="st3" d="M1146.5,353.2c0,.2.3.3.5.3h33.1c.4,0,.8.2,1.1.5.3.3.5.7.5,1.1v15.3c0,.4-.2.8-.5,1.1s-.7.5-1.1.5h-61c-.4,0-.8-.2-1.1-.5-.3-.3-.5-.7-.5-1.1v-14.4c0-.8.3-1.4.8-2,5.2-4.9,12.1-11.8,20.7-20.9l7.8-8.2c7.9-8.1,11.8-14.1,11.8-17.8s-.9-4.6-2.8-6.2c-1.9-1.6-4.3-2.5-7.2-2.5s-5.3.8-7.1,2.5c-1.8,1.6-2.7,3.8-2.7,6.5v3.1c0,.4-.2.8-.5,1.1s-.7.5-1.1.5h-18.7c-.4,0-.8-.2-1.1-.5-.3-.3-.5-.7-.5-1.1v-6.5c.3-4.9,2-9.1,4.8-12.7,2.9-3.6,6.6-6.4,11.3-8.4,4.7-2,9.9-2.9,15.6-2.9s12,1.2,16.8,3.6c4.8,2.4,8.5,5.6,11.1,9.7,2.6,4.1,3.8,8.6,3.8,13.5s-.9,7.1-2.6,10.8c-1.7,3.6-4.3,7.5-7.8,11.6-2.4,2.9-5.2,5.9-8.2,9s-7.2,7.1-12.6,12.2l-2.6,2.5c-.2.2-.2.3-.1.5Z"/>
          <path class="st3" d="M1259.2,342.4c0,4.3-.8,8.5-2.3,12.5-2.3,5.4-6,9.7-11.2,12.9-5.2,3.2-11.3,4.9-18.1,4.9s-12.9-1.6-18.1-4.7c-5.2-3.2-9-7.5-11.3-12.9-1-2.4-1.6-5-2.1-7.8v-.3c0-1,.5-1.4,1.6-1.4h19c.8,0,1.4.4,1.8,1.3,0,.5.4,1.2.9,2.1,1.6,3.6,4.3,5.3,7.9,5.3s3.5-.5,4.9-1.4c1.5-.9,2.6-2.2,3.5-4,1-1.7,1.4-3.9,1.4-6.5s-.4-4.5-1.3-6.2c-.6-1.6-1.6-2.8-3.1-3.7-1.4-.9-3.1-1.4-4.9-1.4s-3.9.5-5.6,1.4c-1.7,1-2.9,2.2-3.5,3.6-.3.9-.8,1.3-1.7,1.3h-19.4c-.4,0-.8-.2-1.1-.5-.3-.3-.5-.7-.5-1.1v-53.4c0-.4.2-.8.5-1.1s.7-.5,1.1-.5h56.9c.4,0,.8.2,1.1.5.3.3.5.7.5,1.1v15.3c0,.4-.2.8-.5,1.1-.3.3-.7.5-1.1.5h-36.3c-.4,0-.7.2-.7.7v15.2c0,.3,0,.4.3.5.2,0,.3,0,.5-.1,3.6-2.1,7.6-3.1,12.1-3.1s11.6,1.6,16.2,4.7c4.7,3.1,8.1,7.4,10.1,12.7,1.5,4.2,2.2,8.3,2.2,12.5Z"/>
        </g>
        <g class="st1">
          <path class="st0" d="M780.1,369.5c-5.3-2.3-9.4-5.6-12.4-9.9-2.9-4.3-4.4-9.2-4.4-14.9v-2.5c0-.4.2-.8.5-1.1s.7-.5,1.1-.5h18.1c.4,0,.8.2,1.1.5.3.3.5.7.5,1.1v1.6c0,2.9,1.4,5.4,4.3,7.5,2.9,2.1,6.7,3.2,11.6,3.2s6.6-.8,8.5-2.5c1.8-1.6,2.7-3.6,2.7-5.7s-.5-3.1-1.6-4.2c-1.1-1.1-2.5-2-4.4-2.7-1.8-.7-4.6-1.8-8.5-3.1-.5-.3-1-.5-1.6-.6-.5-.1-1-.3-1.4-.5-5.6-1.8-10.5-3.8-14.7-5.9-4.2-2.1-7.7-5.1-10.7-8.8-2.9-3.8-4.4-8.4-4.4-14s1.4-10.1,4.2-14.1c2.8-4,6.7-7.1,11.8-9.3,5-2.2,10.7-3.2,17-3.2s12.7,1.2,18,3.6c5.3,2.4,9.5,5.9,12.5,10.3,3,4.4,4.6,9.5,4.6,15.2v1.8c0,.4-.2.8-.5,1.1s-.7.5-1.1.5h-18.1c-.4,0-.8-.2-1.1-.5-.3-.3-.5-.7-.5-1.1v-.9c0-3-1.3-5.7-4-8.1-2.7-2.3-6.3-3.5-10.8-3.5s-6,.7-7.9,2.1c-1.9,1.4-2.9,3.3-2.9,5.8s.6,3.5,1.8,4.7c1.2,1.3,3.1,2.4,5.7,3.5,2.6,1.1,6.5,2.5,11.8,4.2,6.1,2.1,10.8,3.9,14.2,5.5s6.6,4.1,9.6,7.6c3,3.5,4.5,8.1,4.5,13.8s-1.4,10.5-4.3,14.6c-2.9,4.1-6.9,7.2-12,9.4-5.2,2.2-11.2,3.3-18,3.3s-13.5-1.1-18.8-3.4Z"/>
          <path class="st0" d="M913.1,299c-.3.3-.7.5-1.1.5h-40.8c-.4,0-.7.2-.7.7v16c0,.4.2.7.7.7h26.1c.4,0,.8.2,1.1.5.3.3.5.7.5,1.1v15.2c0,.4-.2.8-.5,1.1s-.7.5-1.1.5h-26.1c-.4,0-.7.2-.7.7v17.2c0,.4.2.7.7.7h40.8c.4,0,.8.2,1.1.5.3.3.5.7.5,1.1v15.3c0,.4-.2.8-.5,1.1s-.7.5-1.1.5h-61.5c-.4,0-.8-.2-1.1-.5-.3-.3-.5-.7-.5-1.1v-87.9c0-.4.2-.8.5-1.1s.7-.5,1.1-.5h61.5c.4,0,.8.2,1.1.5.3.3.5.7.5,1.1v15.3c0,.4-.2.8-.5,1.1Z"/>
          <path class="st0" d="M988,353.2c0,.2.3.3.5.3h33.2c.4,0,.8.2,1.1.5.3.3.5.7.5,1.1v15.3c0,.4-.2.8-.5,1.1s-.7.5-1.1.5h-61c-.4,0-.8-.2-1.1-.5-.3-.3-.5-.7-.5-1.1v-14.4c0-.8.3-1.4.8-2,5.2-4.9,12.1-11.8,20.7-20.9l7.8-8.2c7.9-8.1,11.8-14.1,11.8-17.8s-.9-4.6-2.8-6.2c-1.9-1.6-4.3-2.5-7.2-2.5s-5.3.8-7.2,2.5c-1.8,1.6-2.7,3.8-2.7,6.5v3.1c0,.4-.2.8-.5,1.1s-.7.5-1.1.5h-18.7c-.4,0-.8-.2-1.1-.5-.3-.3-.5-.7-.5-1.1v-6.5c.3-4.9,1.9-9.1,4.8-12.7,2.9-3.6,6.6-6.4,11.3-8.4,4.7-2,9.9-2.9,15.6-2.9s12,1.2,16.8,3.6c4.8,2.4,8.5,5.6,11,9.7,2.6,4.1,3.8,8.6,3.8,13.5s-.9,7.1-2.6,10.8c-1.7,3.6-4.3,7.5-7.8,11.6-2.4,2.9-5.2,5.9-8.2,9-3,3-7.2,7.1-12.6,12.2l-2.6,2.5c-.2.2-.2.3-.1.5Z"/>
          <path class="st0" d="M1046.5,365.1c-5.7-5.6-8.6-13.2-8.6-22.8v-31.7c0-9.5,2.9-17,8.6-22.5s13.6-8.2,23.5-8.2,17.9,2.8,23.7,8.3c5.8,5.5,8.7,13,8.7,22.4v31.7c0,9.6-2.9,17.2-8.7,22.8-5.8,5.6-13.7,8.4-23.7,8.4s-17.8-2.8-23.5-8.4ZM1077.9,351.9c1.9-2,2.9-4.8,2.9-8.4v-33.7c0-3.6-1-6.3-2.9-8.4-2-2-4.6-3.1-7.9-3.1s-5.8,1-7.7,3.1c-1.9,2-2.9,4.8-2.9,8.4v33.7c0,3.6.9,6.3,2.8,8.4,1.9,2,4.4,3.1,7.7,3.1s5.9-1,7.9-3.1Z"/>
          <path class="st0" d="M1146.5,353.2c0,.2.3.3.5.3h33.1c.4,0,.8.2,1.1.5.3.3.5.7.5,1.1v15.3c0,.4-.2.8-.5,1.1s-.7.5-1.1.5h-61c-.4,0-.8-.2-1.1-.5-.3-.3-.5-.7-.5-1.1v-14.4c0-.8.3-1.4.8-2,5.2-4.9,12.1-11.8,20.7-20.9l7.8-8.2c7.9-8.1,11.8-14.1,11.8-17.8s-.9-4.6-2.8-6.2c-1.9-1.6-4.3-2.5-7.2-2.5s-5.3.8-7.1,2.5c-1.8,1.6-2.7,3.8-2.7,6.5v3.1c0,.4-.2.8-.5,1.1s-.7.5-1.1.5h-18.7c-.4,0-.8-.2-1.1-.5-.3-.3-.5-.7-.5-1.1v-6.5c.3-4.9,2-9.1,4.8-12.7,2.9-3.6,6.6-6.4,11.3-8.4,4.7-2,9.9-2.9,15.6-2.9s12,1.2,16.8,3.6c4.8,2.4,8.5,5.6,11.1,9.7,2.6,4.1,3.8,8.6,3.8,13.5s-.9,7.1-2.6,10.8c-1.7,3.6-4.3,7.5-7.8,11.6-2.4,2.9-5.2,5.9-8.2,9s-7.2,7.1-12.6,12.2l-2.6,2.5c-.2.2-.2.3-.1.5Z"/>
          <path class="st0" d="M1259.2,342.4c0,4.3-.8,8.5-2.3,12.5-2.3,5.4-6,9.7-11.2,12.9-5.2,3.2-11.3,4.9-18.1,4.9s-12.9-1.6-18.1-4.7c-5.2-3.2-9-7.5-11.3-12.9-1-2.4-1.6-5-2.1-7.8v-.3c0-1,.5-1.4,1.6-1.4h19c.8,0,1.4.4,1.8,1.3,0,.5.4,1.2.9,2.1,1.6,3.6,4.3,5.3,7.9,5.3s3.5-.5,4.9-1.4c1.5-.9,2.6-2.2,3.5-4,1-1.7,1.4-3.9,1.4-6.5s-.4-4.5-1.3-6.2c-.6-1.6-1.6-2.8-3.1-3.7-1.4-.9-3.1-1.4-4.9-1.4s-3.9.5-5.6,1.4c-1.7,1-2.9,2.2-3.5,3.6-.3.9-.8,1.3-1.7,1.3h-19.4c-.4,0-.8-.2-1.1-.5-.3-.3-.5-.7-.5-1.1v-53.4c0-.4.2-.8.5-1.1s.7-.5,1.1-.5h56.9c.4,0,.8.2,1.1.5.3.3.5.7.5,1.1v15.3c0,.4-.2.8-.5,1.1-.3.3-.7.5-1.1.5h-36.3c-.4,0-.7.2-.7.7v15.2c0,.3,0,.4.3.5.2,0,.3,0,.5-.1,3.6-2.1,7.6-3.1,12.1-3.1s11.6,1.6,16.2,4.7c4.7,3.1,8.1,7.4,10.1,12.7,1.5,4.2,2.2,8.3,2.2,12.5Z"/>
        </g>
      </g>
      <g class="st1">
        <g class="st1">
          <path class="st2" d="M539.4,64c7.9,4.2,11.8,11.1,11.8,20.8s-3,15.1-9,19.4c-6,4.2-13.8,6.4-23.5,6.4h-34.6c-.4,0-.8-.2-1.1-.5-.3-.3-.5-.7-.5-1.1V21.1c0-.4.1-.8.5-1.1s.7-.5,1.1-.5h33.5c10.6,0,18.6,2,24,6,5.4,4,8.1,10.4,8.1,19.4s-3.5,14.6-10.4,18.3c-.5.3-.5.5,0,.8ZM504.1,38.6v16.4c0,.4.2.6.7.6h12.9c3.6,0,6.3-.8,8.2-2.3,1.9-1.5,2.9-3.7,2.9-6.4s-1-5.1-2.9-6.6c-1.9-1.6-4.6-2.3-8.2-2.3h-12.9c-.4,0-.7.2-.7.7ZM526.8,89.5c1.9-1.6,2.9-3.9,2.9-7s-.9-5.2-2.8-6.8c-1.9-1.6-4.6-2.4-8.1-2.4h-13.9c-.4,0-.7.2-.7.6v17.3c0,.4.2.7.7.7h13.9c3.5,0,6.2-.8,8.1-2.4Z"/>
          <path class="st2" d="M583.4,107.7c-5.3-2.8-9.5-6.8-12.4-11.9-2.9-5.1-4.4-11-4.4-17.8v-26c0-6.6,1.5-12.4,4.4-17.5,2.9-5.1,7.1-9,12.4-11.8,5.3-2.8,11.5-4.2,18.5-4.2s13.2,1.4,18.6,4.2c5.4,2.8,9.5,6.8,12.5,11.8,2.9,5.1,4.4,10.9,4.4,17.5v26c0,6.8-1.5,12.7-4.4,17.8-2.9,5.1-7.1,9.1-12.5,11.9-5.4,2.8-11.6,4.2-18.6,4.2s-13.2-1.4-18.5-4.2ZM612,89.4c2.6-2.7,3.8-6.3,3.8-10.8v-26.9c0-4.4-1.3-8-3.8-10.7-2.6-2.7-5.9-4.1-10.1-4.1s-7.4,1.4-9.9,4.1c-2.6,2.7-3.8,6.3-3.8,10.7v26.9c0,4.5,1.3,8.1,3.8,10.8,2.6,2.7,5.9,4,9.9,4s7.5-1.3,10.1-4Z"/>
          <path class="st2" d="M669.9,107.6c-5.2-2.6-9.3-6.4-12.2-11.2-2.9-4.9-4.4-10.4-4.4-16.8V21.1c0-.4.2-.8.5-1.1s.7-.5,1.1-.5h18.5c.4,0,.8.2,1.1.5.3.3.5.7.5,1.1v58.5c0,4.1,1.2,7.3,3.6,9.8,2.4,2.5,5.6,3.7,9.6,3.7s7-1.2,9.4-3.7c2.4-2.5,3.6-5.7,3.6-9.8V21.1c0-.4.2-.8.5-1.1s.7-.5,1.1-.5h18.5c.4,0,.8.2,1.1.5.3.3.5.7.5,1.1v58.5c0,6.3-1.4,11.9-4.3,16.8-2.9,4.9-6.9,8.6-12.2,11.2-5.2,2.6-11.3,4-18.1,4s-12.9-1.3-18.1-4Z"/>
          <path class="st2" d="M792.1,20c.3-.3.7-.5,1.1-.5h18.5c.4,0,.8.2,1.1.5.3.3.5.7.5,1.1v87.9c0,.4-.2.8-.5,1.1s-.7.5-1.1.5h-17.7c-.9,0-1.5-.3-1.8-1l-29.9-49.7c-.2-.3-.3-.4-.5-.3-.2,0-.3.2-.3.6v48.9c.1.4,0,.8-.3,1.1s-.7.5-1.1.5h-18.5c-.4,0-.8-.2-1.1-.5-.3-.3-.5-.7-.5-1.1V21.1c0-.4.2-.8.5-1.1s.7-.5,1.1-.5h17.8c.9,0,1.5.3,1.8,1l29.8,49.5c.2.3.3.4.5.3.2,0,.3-.2.3-.6V21.1c-.1-.4,0-.8.3-1.1Z"/>
          <path class="st2" d="M898.2,20c.3.3.5.7.5,1.1v15.5c0,.4-.2.8-.5,1.1s-.7.5-1.1.5h-22.8c-.4,0-.6.2-.6.7v70.2c0,.4-.2.8-.5,1.1s-.7.5-1.1.5h-18.5c-.4,0-.8-.2-1.1-.5-.3-.3-.5-.7-.5-1.1V38.7c0-.4-.2-.7-.7-.7h-22c-.4,0-.8-.2-1.1-.5-.3-.3-.5-.7-.5-1.1v-15.5c0-.4.2-.8.5-1.1s.7-.5,1.1-.5h67.6c.4,0,.8.2,1.1.5Z"/>
          <path class="st2" d="M937.7,109.8c-.3-.3-.5-.7-.5-1.1v-30.8c0-.3,0-.6-.1-.8l-26.7-55.8c-.2-.3-.3-.6-.3-.8,0-.7.5-1,1.4-1h20c.9,0,1.5.4,1.8,1.2l14.2,32.9c.3.5.5.5.8,0l14.3-32.9c.3-.8,1-1.2,1.8-1.2h20.2c.6,0,1,.2,1.2.5.2.3.2.8,0,1.4l-27,55.8c0,.2-.1.4-.1.8v30.8c0,.4-.2.8-.5,1.1s-.7.5-1.1.5h-18.3c-.4,0-.8-.2-1.1-.5Z"/>
        </g>
        <g class="st1">
          <path class="st2" d="M20.6,236.1c-5.3-2.3-9.4-5.6-12.4-9.9-2.9-4.3-4.4-9.2-4.4-14.9v-2.5c0-.4.2-.8.5-1.1s.7-.5,1.1-.5h18.1c.4,0,.8.2,1.1.5.3.3.5.7.5,1.1v1.6c0,2.9,1.4,5.4,4.3,7.5,2.9,2.1,6.7,3.2,11.6,3.2s6.6-.8,8.4-2.5c1.8-1.6,2.7-3.6,2.7-5.7s-.5-3.1-1.6-4.2c-1.1-1.1-2.5-2-4.4-2.7-1.8-.7-4.6-1.8-8.4-3.1-.5-.3-1-.5-1.6-.6s-1-.3-1.4-.5c-5.6-1.8-10.5-3.8-14.7-5.9-4.2-2.1-7.7-5.1-10.7-8.8-2.9-3.8-4.4-8.4-4.4-14s1.4-10.1,4.2-14.1c2.8-4,6.7-7.1,11.8-9.3,5-2.2,10.7-3.2,17-3.2s12.7,1.2,18,3.6c5.3,2.4,9.5,5.9,12.5,10.3,3,4.4,4.6,9.5,4.6,15.2v1.8c0,.4-.2.8-.5,1.1s-.7.5-1.1.5h-18.1c-.4,0-.8-.2-1.1-.5-.3-.3-.5-.7-.5-1.1v-.9c0-3-1.3-5.7-4-8.1-2.7-2.3-6.3-3.5-10.8-3.5s-6,.7-7.9,2.1c-1.9,1.4-2.9,3.3-2.9,5.8s.6,3.5,1.8,4.7c1.2,1.3,3.1,2.4,5.7,3.5,2.6,1.1,6.5,2.5,11.8,4.2,6.1,2.1,10.8,3.9,14.2,5.5s6.6,4.1,9.6,7.6c3,3.5,4.5,8.1,4.5,13.8s-1.4,10.5-4.3,14.6c-2.9,4.1-6.9,7.2-12,9.4-5.2,2.2-11.2,3.3-18,3.3s-13.5-1.1-18.8-3.4Z"/>
          <path class="st2" d="M155.8,148c.3.3.5.7.5,1.1v15.5c0,.4-.2.8-.5,1.1s-.7.5-1.1.5h-22.8c-.4,0-.6.2-.6.7v70.2c0,.4-.2.8-.5,1.1s-.7.5-1.1.5h-18.5c-.4,0-.8-.2-1.1-.5-.3-.3-.5-.7-.5-1.1v-70.2c0-.4-.2-.7-.6-.7h-22c-.4,0-.8-.2-1.1-.5-.3-.3-.5-.7-.5-1.1v-15.5c0-.4.2-.8.5-1.1s.7-.5,1.1-.5h67.6c.4,0,.8.2,1.1.5Z"/>
          <path class="st2" d="M217.8,237.3l-15.3-34.6c-.2-.3-.4-.5-.8-.5h-8.6c-.4,0-.7.2-.7.6v34.1c0,.4-.2.8-.5,1.1-.3.3-.7.5-1.1.5h-18.5c-.4,0-.8-.2-1.1-.5-.3-.3-.5-.7-.5-1.1v-87.9c0-.4.1-.8.5-1.1s.7-.5,1.1-.5h38.6c5.7,0,10.7,1.2,15.1,3.5,4.3,2.3,7.7,5.7,10.1,9.9,2.4,4.3,3.6,9.2,3.6,14.8s-1.4,10.8-4.3,15.1c-2.9,4.2-6.8,7.3-12,9.2-.4.2-.6.5-.4.9l17.2,35.8c.2.3.3.6.3.8,0,.7-.5,1-1.4,1h-19.5c-.9,0-1.5-.4-1.8-1.2ZM192.4,166.6v18.5c0,.4.2.6.7.6h14.4c3.2,0,5.8-.9,7.8-2.7,2-1.8,3-4.1,3-7.1s-1-5.5-3-7.3c-2-1.8-4.6-2.7-7.8-2.7h-14.4c-.4,0-.7.2-.7.7Z"/>
        </g>
        <g class="st1">
          <path class="st2" d="M315.1,237.2l-3.4-11.6c-.2-.3-.4-.5-.6-.5h-29.6c-.3,0-.5.2-.6.5l-3.4,11.6c-.3.9-.9,1.3-1.8,1.3h-19.9c-.5,0-.9-.2-1.2-.5-.3-.3-.3-.8-.1-1.4l27.8-87.9c.3-.9.8-1.3,1.7-1.3h24.6c.9,0,1.4.4,1.7,1.3l28,87.9c0,.2.1.4.1.7,0,.8-.5,1.2-1.4,1.2h-19.9c-1,0-1.6-.4-1.8-1.3ZM286.5,208.5h19.4c.5,0,.7-.3.5-.8l-9.9-33.4c0-.3-.2-.5-.4-.5-.2,0-.3.2-.4.5l-9.8,33.4c0,.5,0,.8.5.8Z"/>
        </g>
        <g class="st1">
          <path class="st2" d="M409.4,148c.3.3.5.7.5,1.1v15.5c0,.4-.2.8-.5,1.1s-.7.5-1.1.5h-22.8c-.4,0-.6.2-.6.7v70.2c0,.4-.2.8-.5,1.1s-.7.5-1.1.5h-18.5c-.4,0-.8-.2-1.1-.5-.3-.3-.5-.7-.5-1.1v-70.2c0-.4-.2-.7-.6-.7h-22c-.4,0-.8-.2-1.1-.5-.3-.3-.5-.7-.5-1.1v-15.5c0-.4.1-.8.5-1.1s.7-.5,1.1-.5h67.6c.4,0,.8.2,1.1.5Z"/>
          <path class="st2" d="M488.6,165.5c-.3.3-.7.5-1.1.5h-40.8c-.4,0-.6.2-.6.7v16c0,.4.2.7.6.7h26.1c.4,0,.8.2,1.1.5.3.3.5.7.5,1.1v15.2c0,.4-.2.8-.5,1.1s-.7.5-1.1.5h-26.1c-.4,0-.6.2-.6.7v17.2c0,.4.2.7.6.7h40.8c.4,0,.8.2,1.1.5.3.3.5.7.5,1.1v15.3c0,.4-.2.8-.5,1.1-.3.3-.7.5-1.1.5h-61.5c-.4,0-.8-.2-1.1-.5-.3-.3-.5-.7-.5-1.1v-87.9c0-.4.2-.8.5-1.1s.7-.5,1.1-.5h61.5c.4,0,.8.2,1.1.5.3.3.5.7.5,1.1v15.3c0,.4-.2.8-.5,1.1Z"/>
          <path class="st2" d="M519.8,235.4c-5.2-2.8-9.3-6.7-12.2-11.7-2.9-5-4.4-10.8-4.4-17.4v-26.6c0-6.6,1.5-12.4,4.4-17.4,2.9-5,7-8.9,12.2-11.6,5.2-2.8,11.3-4.2,18.3-4.2s12.9,1.3,18.2,4c5.3,2.6,9.4,6.3,12.3,10.9,2.9,4.6,4.4,9.7,4.4,15.2v.6c0,.4-.2.8-.5,1.1s-.7.5-1.1.5h-18.5c-.4,0-.8-.2-1.1-.5-.3-.3-.5-.7-.5-1.1,0-3.4-1.2-6.3-3.6-8.6-2.4-2.4-5.6-3.6-9.7-3.6s-7.2,1.3-9.6,3.9c-2.4,2.6-3.6,6-3.6,10.1v28c0,4.2,1.3,7.5,4,10.1,2.7,2.6,6.1,3.9,10.1,3.9s6.9-1,9.2-3.1c2.3-2,3.5-4.9,3.5-8.5v-3.6c0-.4-.2-.7-.6-.7h-13c-.4,0-.8-.2-1.1-.5-.3-.3-.5-.7-.5-1.1v-14.3c0-.4.2-.8.5-1.1s.7-.5,1.1-.5h33.3c.4,0,.8.2,1.1.5.3.3.5.7.5,1.1v17.7c0,6.5-1.5,12.2-4.4,17.2-2.9,4.9-7,8.8-12.2,11.4-5.2,2.7-11.3,4-18.3,4s-13-1.4-18.3-4.2Z"/>
          <path class="st2" d="M589.9,238c-.3-.3-.5-.7-.5-1.1v-87.9c0-.4.2-.8.5-1.1s.7-.5,1.1-.5h18.5c.4,0,.8.2,1.1.5.3.3.5.7.5,1.1v87.9c0,.4-.2.8-.5,1.1s-.7.5-1.1.5h-18.5c-.4,0-.8-.2-1.1-.5Z"/>
          <path class="st2" d="M644.2,235.5c-5.2-2.7-9.3-6.5-12.2-11.4-2.9-4.9-4.4-10.7-4.4-17.2v-28.1c0-6.4,1.5-12.1,4.4-17,2.9-4.9,7-8.7,12.2-11.4,5.2-2.7,11.3-4,18.3-4s13,1.3,18.3,3.8c5.2,2.6,9.3,6.2,12.2,10.8,2.9,4.6,4.4,10,4.4,16.1s-.2.8-.5,1c-.3.3-.7.4-1.1.4l-18.5,1.2c-1,0-1.6-.5-1.6-1.4,0-4.1-1.2-7.3-3.6-9.8-2.4-2.4-5.6-3.6-9.6-3.6s-7.2,1.2-9.6,3.7c-2.4,2.5-3.6,5.7-3.6,9.7v29.5c0,4,1.2,7.2,3.6,9.6,2.4,2.4,5.6,3.6,9.6,3.6s7.2-1.2,9.6-3.6c2.4-2.4,3.6-5.6,3.6-9.6s.5-1.4,1.6-1.4l18.5.9c.4,0,.8.1,1.1.4.3.3.5.6.5.9,0,6.2-1.5,11.6-4.4,16.2-2.9,4.7-7,8.3-12.2,10.9-5.2,2.6-11.3,3.8-18.3,3.8s-13-1.3-18.3-4Z"/>
          <path class="st2" d="M758.9,236.1c-5.3-2.3-9.4-5.6-12.3-9.9-2.9-4.3-4.4-9.2-4.4-14.9v-2.5c0-.4.2-.8.5-1.1s.7-.5,1.1-.5h18.1c.4,0,.8.2,1.1.5.3.3.5.7.5,1.1v1.6c0,2.9,1.4,5.4,4.3,7.5,2.9,2.1,6.7,3.2,11.6,3.2s6.6-.8,8.5-2.5c1.8-1.6,2.7-3.6,2.7-5.7s-.5-3.1-1.6-4.2c-1.1-1.1-2.5-2-4.4-2.7-1.8-.7-4.6-1.8-8.5-3.1-.5-.3-1-.5-1.6-.6-.5-.1-1-.3-1.4-.5-5.6-1.8-10.5-3.8-14.7-5.9-4.2-2.1-7.7-5.1-10.7-8.8-2.9-3.8-4.4-8.4-4.4-14s1.4-10.1,4.2-14.1c2.8-4,6.7-7.1,11.8-9.3,5-2.2,10.7-3.2,17-3.2s12.7,1.2,18,3.6c5.3,2.4,9.5,5.9,12.5,10.3,3,4.4,4.5,9.5,4.5,15.2v1.8c0,.4-.2.8-.5,1.1s-.7.5-1.1.5h-18.1c-.4,0-.8-.2-1.1-.5-.3-.3-.5-.7-.5-1.1v-.9c0-3-1.3-5.7-4-8.1-2.7-2.3-6.3-3.5-10.8-3.5s-6,.7-7.9,2.1c-1.9,1.4-2.9,3.3-2.9,5.8s.6,3.5,1.8,4.7c1.2,1.3,3.1,2.4,5.7,3.5,2.6,1.1,6.5,2.5,11.8,4.2,6.1,2.1,10.8,3.9,14.2,5.5s6.6,4.1,9.6,7.6c3,3.5,4.5,8.1,4.5,13.8s-1.4,10.5-4.3,14.6c-2.9,4.1-6.9,7.2-12,9.4-5.2,2.2-11.2,3.3-18,3.3s-13.5-1.1-18.8-3.4Z"/>
          <path class="st2" d="M843.8,235.6c-5.2-2.6-9.3-6.4-12.2-11.2-2.9-4.9-4.4-10.4-4.4-16.8v-58.5c0-.4.2-.8.5-1.1s.7-.5,1.1-.5h18.5c.4,0,.8.2,1.1.5.3.3.5.7.5,1.1v58.5c0,4.1,1.2,7.3,3.6,9.8,2.4,2.5,5.6,3.7,9.6,3.7s7-1.2,9.4-3.7c2.4-2.5,3.6-5.7,3.6-9.8v-58.5c0-.4.2-.8.5-1.1.3-.3.7-.5,1.1-.5h18.5c.4,0,.8.2,1.1.5.3.3.5.7.5,1.1v58.5c0,6.3-1.4,11.9-4.3,16.8-2.9,4.9-6.9,8.6-12.2,11.2-5.2,2.6-11.3,4-18.1,4s-12.9-1.3-18.1-4Z"/>
          <path class="st2" d="M968.3,151.1c4.5,2.4,8.1,5.8,10.5,10.2,2.5,4.4,3.7,9.4,3.7,15.1s-1.3,10.6-3.8,15c-2.6,4.3-6.2,7.7-10.9,10-4.7,2.3-10.1,3.5-16.2,3.5h-15.9c-.4,0-.7.2-.7.7v31.3c0,.4-.2.8-.5,1.1s-.7.5-1.1.5h-18.5c-.4,0-.8-.2-1.1-.5-.3-.3-.5-.7-.5-1.1v-87.9c0-.4.2-.8.5-1.1s.7-.5,1.1-.5h37.6c5.9,0,11.1,1.2,15.7,3.6ZM957.8,184.8c2.2-2,3.3-4.6,3.3-7.8s-1.1-6-3.3-8c-2.2-2-5.1-3.1-8.6-3.1h-13.4c-.4,0-.7.2-.7.7v20.5c0,.4.2.6.7.6h13.4c3.6,0,6.4-1,8.6-3Z"/>
          <path class="st2" d="M1051.2,151.1c4.5,2.4,8.1,5.8,10.5,10.2,2.5,4.4,3.7,9.4,3.7,15.1s-1.3,10.6-3.8,15c-2.6,4.3-6.2,7.7-10.9,10s-10.1,3.5-16.2,3.5h-15.9c-.4,0-.6.2-.6.7v31.3c0,.4-.2.8-.5,1.1s-.7.5-1.1.5h-18.5c-.4,0-.8-.2-1.1-.5-.3-.3-.5-.7-.5-1.1v-87.9c0-.4.2-.8.5-1.1s.7-.5,1.1-.5h37.6c5.9,0,11.1,1.2,15.7,3.6ZM1040.7,184.8c2.2-2,3.3-4.6,3.3-7.8s-1.1-6-3.3-8c-2.2-2-5.1-3.1-8.6-3.1h-13.4c-.4,0-.6.2-.6.7v20.5c0,.4.2.6.6.6h13.4c3.6,0,6.4-1,8.6-3Z"/>
          <path class="st2" d="M1080.2,238c-.3-.3-.5-.7-.5-1.1v-87.9c0-.4.2-.8.5-1.1s.7-.5,1.1-.5h18.5c.4,0,.8.2,1.1.5.3.3.5.7.5,1.1v70.3c0,.4.2.7.6.7h41.5c.4,0,.8.2,1.1.5.3.3.5.7.5,1.1v15.3c0,.4-.2.8-.5,1.1s-.7.5-1.1.5h-62.1c-.4,0-.8-.2-1.1-.5Z"/>
          <path class="st2" d="M1159.9,238c-.3-.3-.5-.7-.5-1.1v-87.9c0-.4.2-.8.5-1.1s.7-.5,1.1-.5h18.5c.4,0,.8.2,1.1.5.3.3.5.7.5,1.1v87.9c0,.4-.2.8-.5,1.1s-.7.5-1.1.5h-18.5c-.4,0-.8-.2-1.1-.5Z"/>
          <path class="st2" d="M1263.3,165.5c-.3.3-.7.5-1.1.5h-40.8c-.4,0-.6.2-.6.7v16c0,.4.2.7.6.7h26.1c.4,0,.8.2,1.1.5.3.3.5.7.5,1.1v15.2c0,.4-.2.8-.5,1.1s-.7.5-1.1.5h-26.1c-.4,0-.6.2-.6.7v17.2c0,.4.2.7.6.7h40.8c.4,0,.8.2,1.1.5.3.3.5.7.5,1.1v15.3c0,.4-.2.8-.5,1.1s-.7.5-1.1.5h-61.5c-.4,0-.8-.2-1.1-.5-.3-.3-.5-.7-.5-1.1v-87.9c0-.4.2-.8.5-1.1s.7-.5,1.1-.5h61.5c.4,0,.8.2,1.1.5.3.3.5.7.5,1.1v15.3c0,.4-.2.8-.5,1.1Z"/>
          <path class="st2" d="M1326.2,237.3l-15.3-34.6c-.2-.3-.4-.5-.8-.5h-8.6c-.4,0-.7.2-.7.6v34.1c0,.4-.2.8-.5,1.1s-.7.5-1.1.5h-18.5c-.4,0-.8-.2-1.1-.5-.3-.3-.5-.7-.5-1.1v-87.9c0-.4.2-.8.5-1.1s.7-.5,1.1-.5h38.6c5.7,0,10.7,1.2,15.1,3.5,4.3,2.3,7.7,5.7,10.1,9.9,2.4,4.3,3.6,9.2,3.6,14.8s-1.4,10.8-4.3,15.1c-2.9,4.2-6.8,7.3-12,9.2-.4.2-.6.5-.4.9l17.2,35.8c.2.3.3.6.3.8,0,.7-.5,1-1.4,1h-19.5c-.9,0-1.5-.4-1.8-1.2ZM1300.9,166.6v18.5c0,.4.2.6.7.6h14.4c3.2,0,5.8-.9,7.8-2.7,2-1.8,3-4.1,3-7.1s-1-5.5-3-7.3c-2-1.8-4.6-2.7-7.8-2.7h-14.4c-.4,0-.7.2-.7.7Z"/>
          <path class="st2" d="M1378.6,236.1c-5.3-2.3-9.4-5.6-12.4-9.9-2.9-4.3-4.4-9.2-4.4-14.9v-2.5c0-.4.2-.8.5-1.1s.7-.5,1.1-.5h18.1c.4,0,.8.2,1.1.5.3.3.5.7.5,1.1v1.6c0,2.9,1.4,5.4,4.3,7.5,2.9,2.1,6.7,3.2,11.6,3.2s6.6-.8,8.5-2.5c1.8-1.6,2.7-3.6,2.7-5.7s-.5-3.1-1.6-4.2c-1.1-1.1-2.5-2-4.4-2.7-1.8-.7-4.6-1.8-8.5-3.1-.5-.3-1-.5-1.6-.6-.5-.1-1-.3-1.4-.5-5.6-1.8-10.5-3.8-14.7-5.9-4.2-2.1-7.7-5.1-10.7-8.8-2.9-3.8-4.4-8.4-4.4-14s1.4-10.1,4.2-14.1c2.8-4,6.7-7.1,11.8-9.3,5-2.2,10.7-3.2,17-3.2s12.7,1.2,18,3.6c5.3,2.4,9.5,5.9,12.5,10.3,3,4.4,4.5,9.5,4.5,15.2v1.8c0,.4-.2.8-.5,1.1s-.7.5-1.1.5h-18.1c-.4,0-.8-.2-1.1-.5-.3-.3-.5-.7-.5-1.1v-.9c0-3-1.3-5.7-4-8.1-2.7-2.3-6.3-3.5-10.8-3.5s-6,.7-7.9,2.1c-1.9,1.4-2.9,3.3-2.9,5.8s.6,3.5,1.8,4.7c1.2,1.3,3.1,2.4,5.7,3.5,2.6,1.1,6.5,2.5,11.8,4.2,6.1,2.1,10.8,3.9,14.2,5.5,3.4,1.6,6.6,4.1,9.6,7.6,3,3.5,4.5,8.1,4.5,13.8s-1.4,10.5-4.3,14.6c-2.9,4.1-6.9,7.2-12,9.4-5.2,2.2-11.2,3.3-18,3.3s-13.5-1.1-18.8-3.4Z"/>
        </g>
        <g class="st1">
          <path d="M228.1,364.1c-5.3-2.3-9.4-5.6-12.4-9.9-2.9-4.3-4.4-9.2-4.4-14.9v-2.5c0-.4.2-.8.5-1.1s.7-.5,1.1-.5h18.1c.4,0,.8.2,1.1.5.3.3.5.7.5,1.1v1.6c0,2.9,1.4,5.4,4.3,7.5,2.9,2.1,6.7,3.2,11.6,3.2s6.6-.8,8.5-2.5c1.8-1.6,2.7-3.6,2.7-5.7s-.5-3.1-1.6-4.2c-1.1-1.1-2.5-2-4.4-2.7-1.8-.7-4.6-1.8-8.5-3.1-.5-.3-1-.5-1.6-.6s-1-.3-1.4-.5c-5.6-1.8-10.5-3.8-14.7-5.9-4.2-2.1-7.7-5.1-10.7-8.8-2.9-3.8-4.4-8.4-4.4-14s1.4-10.1,4.2-14.1c2.8-4,6.7-7.1,11.8-9.3,5-2.2,10.7-3.2,17-3.2s12.7,1.2,18,3.6c5.3,2.4,9.5,5.9,12.5,10.3,3,4.4,4.5,9.5,4.5,15.2v1.8c0,.4-.2.8-.5,1.1s-.7.5-1.1.5h-18.1c-.4,0-.8-.2-1.1-.5-.3-.3-.5-.7-.5-1.1v-.9c0-3-1.3-5.7-4-8.1-2.7-2.3-6.3-3.5-10.8-3.5s-6,.7-7.9,2.1c-1.9,1.4-2.9,3.3-2.9,5.8s.6,3.5,1.8,4.7c1.2,1.3,3.1,2.4,5.7,3.5,2.6,1.1,6.5,2.5,11.8,4.2,6.1,2.1,10.8,3.9,14.2,5.5,3.4,1.6,6.6,4.1,9.6,7.6,3,3.5,4.5,8.1,4.5,13.8s-1.4,10.5-4.3,14.6c-2.9,4.1-6.9,7.2-12,9.4-5.2,2.2-11.2,3.3-18,3.3s-13.5-1.1-18.8-3.4Z"/>
          <path d="M344.6,276c.3-.3.7-.5,1.1-.5h18.5c.4,0,.8.2,1.1.5.3.3.5.7.5,1.1v87.9c0,.4-.2.8-.5,1.1s-.7.5-1.1.5h-18.5c-.4,0-.8-.2-1.1-.5-.3-.3-.5-.7-.5-1.1v-34.6c0-.4-.2-.7-.6-.7h-24.3c-.4,0-.6.2-.6.7v34.6c0,.4-.2.8-.5,1.1s-.7.5-1.1.5h-18.5c-.4,0-.8-.2-1.1-.5-.3-.3-.5-.7-.5-1.1v-87.9c0-.4.2-.8.5-1.1s.7-.5,1.1-.5h18.5c.4,0,.8.2,1.1.5.3.3.5.7.5,1.1v33.5c0,.4.2.7.6.7h24.3c.4,0,.6-.2.6-.7v-33.5c0-.4.2-.8.5-1.1Z"/>
        </g>
        <g class="st1">
          <path d="M397.4,363.7c-5.3-2.8-9.5-6.8-12.4-11.9-2.9-5.1-4.4-11-4.4-17.8v-26c0-6.6,1.5-12.4,4.4-17.5,2.9-5.1,7.1-9,12.4-11.8,5.3-2.8,11.5-4.2,18.5-4.2s13.2,1.4,18.6,4.2c5.4,2.8,9.5,6.8,12.5,11.8,2.9,5.1,4.4,10.9,4.4,17.5v26c0,6.8-1.5,12.7-4.4,17.8-2.9,5.1-7.1,9.1-12.5,11.9-5.4,2.8-11.6,4.2-18.6,4.2s-13.2-1.4-18.5-4.2ZM426,345.4c2.6-2.7,3.8-6.3,3.8-10.8v-26.9c0-4.4-1.3-8-3.8-10.7-2.6-2.7-5.9-4.1-10.1-4.1s-7.4,1.4-9.9,4.1c-2.6,2.7-3.8,6.3-3.8,10.7v26.9c0,4.5,1.3,8.1,3.8,10.8,2.6,2.7,5.9,4,9.9,4s7.5-1.3,10.1-4Z"/>
        </g>
        <g class="st1">
          <path d="M486.1,365.2l-24.2-88v-.5c-.1-.8.3-1.2,1.3-1.2h19.8c.9,0,1.4.4,1.7,1.3l11.3,47.3c0,.3.2.5.4.5s.3-.2.4-.5l10.1-47.2c.2-1,.7-1.4,1.7-1.4h18.1c.9,0,1.4.4,1.7,1.3l11.3,47.3c0,.3.2.5.4.5s.3-.2.4-.5l10.5-47.2c.2-1,.7-1.4,1.7-1.4h19.2c1.2,0,1.7.6,1.4,1.7l-22,88c-.3.9-.9,1.3-1.8,1.3h-18.6c-1,0-1.5-.5-1.7-1.4l-11.3-50.2c0-.3-.2-.5-.4-.5s-.3.2-.4.5l-10.1,50.2c-.2,1-.7,1.4-1.7,1.4h-17.4c-1,0-1.6-.4-1.8-1.3Z"/>
        </g>
        <g class="st1">
          <path d="M602.3,363.5c-5.2-2.7-9.3-6.5-12.2-11.4-2.9-4.9-4.4-10.7-4.4-17.2v-28.1c0-6.4,1.5-12.1,4.4-17,2.9-4.9,7-8.7,12.2-11.4,5.2-2.7,11.3-4,18.3-4s13,1.3,18.3,3.8c5.2,2.6,9.3,6.2,12.2,10.8,2.9,4.6,4.4,10,4.4,16.1s-.2.8-.5,1c-.3.3-.7.4-1.1.4l-18.5,1.2c-1,0-1.6-.5-1.6-1.4,0-4.1-1.2-7.3-3.6-9.8-2.4-2.4-5.6-3.6-9.6-3.6s-7.2,1.2-9.6,3.7c-2.4,2.5-3.6,5.7-3.6,9.7v29.5c0,4,1.2,7.2,3.6,9.6,2.4,2.4,5.6,3.6,9.6,3.6s7.2-1.2,9.6-3.6c2.4-2.4,3.6-5.6,3.6-9.6s.5-1.4,1.6-1.4l18.5.9c.4,0,.8.1,1.1.4.3.3.5.6.5.9,0,6.2-1.5,11.6-4.4,16.2-2.9,4.7-7,8.3-12.2,10.9-5.2,2.6-11.3,3.8-18.3,3.8s-13-1.3-18.3-4Z"/>
        </g>
        <g class="st1">
          <path d="M725.7,365.2l-3.4-11.6c-.2-.3-.4-.5-.6-.5h-29.6c-.3,0-.5.2-.6.5l-3.4,11.6c-.3.9-.9,1.3-1.8,1.3h-19.9c-.5,0-.9-.2-1.2-.5-.3-.3-.3-.8-.1-1.4l27.8-87.9c.3-.9.8-1.3,1.7-1.3h24.6c.9,0,1.4.4,1.7,1.3l27.9,87.9c0,.2.1.4.1.7,0,.8-.5,1.2-1.4,1.2h-19.9c-1,0-1.6-.4-1.8-1.3ZM697.1,336.5h19.4c.5,0,.7-.3.5-.8l-9.9-33.4c0-.3-.2-.5-.4-.5-.2,0-.3.2-.4.5l-9.8,33.4c0,.5,0,.8.5.8Z"/>
        </g>
        <g class="st1">
          <path d="M773.9,364.1c-5.3-2.3-9.4-5.6-12.3-9.9-2.9-4.3-4.4-9.2-4.4-14.9v-2.5c0-.4.2-.8.5-1.1s.7-.5,1.1-.5h18.1c.4,0,.8.2,1.1.5.3.3.5.7.5,1.1v1.6c0,2.9,1.4,5.4,4.3,7.5,2.9,2.1,6.7,3.2,11.6,3.2s6.6-.8,8.5-2.5c1.8-1.6,2.7-3.6,2.7-5.7s-.5-3.1-1.6-4.2c-1.1-1.1-2.5-2-4.4-2.7-1.8-.7-4.6-1.8-8.5-3.1-.5-.3-1-.5-1.6-.6-.5-.1-1-.3-1.4-.5-5.6-1.8-10.5-3.8-14.7-5.9-4.2-2.1-7.7-5.1-10.7-8.8-2.9-3.8-4.4-8.4-4.4-14s1.4-10.1,4.2-14.1c2.8-4,6.7-7.1,11.8-9.3,5-2.2,10.7-3.2,17-3.2s12.7,1.2,18,3.6c5.3,2.4,9.5,5.9,12.5,10.3,3,4.4,4.5,9.5,4.5,15.2v1.8c0,.4-.2.8-.5,1.1s-.7.5-1.1.5h-18.1c-.4,0-.8-.2-1.1-.5-.3-.3-.5-.7-.5-1.1v-.9c0-3-1.3-5.7-4-8.1-2.7-2.3-6.3-3.5-10.8-3.5s-6,.7-7.9,2.1c-1.9,1.4-2.9,3.3-2.9,5.8s.6,3.5,1.8,4.7c1.2,1.3,3.1,2.4,5.7,3.5,2.6,1.1,6.5,2.5,11.8,4.2,6.1,2.1,10.8,3.9,14.2,5.5s6.6,4.1,9.6,7.6c3,3.5,4.5,8.1,4.5,13.8s-1.4,10.5-4.3,14.6c-2.9,4.1-6.9,7.2-12,9.4-5.2,2.2-11.2,3.3-18,3.3s-13.5-1.1-18.8-3.4Z"/>
          <path d="M906.9,293.5c-.3.3-.7.5-1.1.5h-40.8c-.4,0-.6.2-.6.7v16c0,.4.2.7.6.7h26.1c.4,0,.8.2,1.1.5.3.3.5.7.5,1.1v15.2c0,.4-.2.8-.5,1.1s-.7.5-1.1.5h-26.1c-.4,0-.6.2-.6.7v17.2c0,.4.2.7.6.7h40.8c.4,0,.8.2,1.1.5.3.3.5.7.5,1.1v15.3c0,.4-.2.8-.5,1.1s-.7.5-1.1.5h-61.5c-.4,0-.8-.2-1.1-.5-.3-.3-.5-.7-.5-1.1v-87.9c0-.4.2-.8.5-1.1s.7-.5,1.1-.5h61.5c.4,0,.8.2,1.1.5.3.3.5.7.5,1.1v15.3c0,.4-.2.8-.5,1.1Z"/>
          <path d="M981.8,347.8c0,.2.3.3.5.3h33.1c.4,0,.8.2,1.1.5.3.3.5.7.5,1.1v15.3c0,.4-.2.8-.5,1.1s-.7.5-1.1.5h-61c-.4,0-.8-.2-1.1-.5-.3-.3-.5-.7-.5-1.1v-14.4c0-.8.3-1.4.8-2,5.2-4.9,12.1-11.8,20.7-20.9l7.8-8.2c7.9-8.1,11.8-14.1,11.8-17.8s-.9-4.6-2.8-6.2c-1.9-1.6-4.3-2.5-7.2-2.5s-5.3.8-7.1,2.5c-1.8,1.6-2.7,3.8-2.7,6.5v3.1c0,.4-.2.8-.5,1.1s-.7.5-1.1.5h-18.7c-.4,0-.8-.2-1.1-.5-.3-.3-.5-.7-.5-1.1v-6.5c.3-4.9,2-9.1,4.8-12.7,2.9-3.6,6.6-6.4,11.3-8.4s9.9-2.9,15.6-2.9,12,1.2,16.8,3.6c4.8,2.4,8.5,5.6,11.1,9.7,2.6,4.1,3.8,8.6,3.8,13.5s-.9,7.1-2.6,10.8c-1.7,3.6-4.3,7.5-7.8,11.6-2.4,2.9-5.2,5.9-8.2,9s-7.2,7.1-12.6,12.2l-2.6,2.5c-.2.2-.2.3-.1.5Z"/>
          <path d="M1040.3,359.7c-5.7-5.6-8.6-13.2-8.6-22.8v-31.7c0-9.5,2.9-17,8.6-22.5,5.7-5.5,13.6-8.2,23.5-8.2s17.9,2.8,23.7,8.3c5.8,5.5,8.7,13,8.7,22.4v31.7c0,9.6-2.9,17.2-8.7,22.8-5.8,5.6-13.7,8.4-23.7,8.4s-17.8-2.8-23.5-8.4ZM1071.7,346.4c2-2,2.9-4.8,2.9-8.4v-33.7c0-3.6-1-6.3-2.9-8.4-2-2-4.6-3.1-7.9-3.1s-5.8,1-7.7,3.1c-1.9,2-2.9,4.8-2.9,8.4v33.7c0,3.6.9,6.3,2.8,8.4,1.9,2,4.4,3.1,7.7,3.1s5.9-1,7.9-3.1Z"/>
          <path d="M1140.3,347.8c0,.2.3.3.5.3h33.2c.4,0,.8.2,1.1.5.3.3.5.7.5,1.1v15.3c0,.4-.2.8-.5,1.1s-.7.5-1.1.5h-61c-.4,0-.8-.2-1.1-.5-.3-.3-.5-.7-.5-1.1v-14.4c0-.8.3-1.4.8-2,5.2-4.9,12.1-11.8,20.7-20.9l7.8-8.2c7.9-8.1,11.8-14.1,11.8-17.8s-.9-4.6-2.8-6.2c-1.9-1.6-4.3-2.5-7.2-2.5s-5.3.8-7.2,2.5c-1.8,1.6-2.7,3.8-2.7,6.5v3.1c0,.4-.2.8-.5,1.1s-.7.5-1.1.5h-18.7c-.4,0-.8-.2-1.1-.5-.3-.3-.5-.7-.5-1.1v-6.5c.3-4.9,2-9.1,4.8-12.7,2.9-3.6,6.6-6.4,11.3-8.4,4.7-2,9.9-2.9,15.6-2.9s12,1.2,16.8,3.6c4.8,2.4,8.5,5.6,11,9.7,2.6,4.1,3.8,8.6,3.8,13.5s-.9,7.1-2.6,10.8c-1.7,3.6-4.3,7.5-7.8,11.6-2.4,2.9-5.2,5.9-8.2,9-3,3-7.2,7.1-12.6,12.2l-2.6,2.5c-.2.2-.2.3-.1.5Z"/>
          <path d="M1253,337c0,4.3-.8,8.5-2.3,12.5-2.3,5.4-6,9.7-11.2,12.9-5.2,3.2-11.3,4.9-18.1,4.9s-12.9-1.6-18.1-4.7c-5.2-3.2-9-7.5-11.3-12.9-1-2.4-1.6-5-2.1-7.8v-.3c0-1,.5-1.4,1.6-1.4h19c.8,0,1.4.4,1.8,1.3,0,.5.4,1.2.9,2.1,1.6,3.6,4.3,5.3,7.9,5.3s3.5-.5,4.9-1.4c1.5-.9,2.6-2.2,3.5-4,1-1.7,1.4-3.9,1.4-6.5s-.4-4.5-1.3-6.2c-.6-1.6-1.6-2.8-3.1-3.7-1.4-.9-3.1-1.4-4.9-1.4s-3.9.5-5.6,1.4c-1.7,1-2.9,2.2-3.5,3.6-.3.9-.8,1.3-1.7,1.3h-19.4c-.4,0-.8-.2-1.1-.5-.3-.3-.5-.7-.5-1.1v-53.4c0-.4.2-.8.5-1.1.3-.3.7-.5,1.1-.5h56.9c.4,0,.8.2,1.1.5.3.3.5.7.5,1.1v15.3c0,.4-.2.8-.5,1.1s-.7.5-1.1.5h-36.3c-.4,0-.6.2-.6.7v15.2c0,.3,0,.4.3.5.2,0,.3,0,.5-.1,3.6-2.1,7.6-3.1,12.1-3.1s11.6,1.6,16.2,4.7c4.7,3.1,8.1,7.4,10.1,12.7,1.5,4.2,2.2,8.3,2.2,12.5Z"/>
        </g>
      </g>
    </g>
  </g>
</svg>